<svg xmlns="http://www.w3.org/2000/svg" width="14" height="15" viewBox="0 0 14 15" fill="none">
  <path d="M3.92511 3.07212C3.6452 3.07212 3.41309 2.84 3.41309 2.5601V0.512019C3.41309 0.232115 3.6452 0 3.92511 0C4.20501 0 4.43712 0.232115 4.43712 0.512019V2.5601C4.43712 2.84 4.20501 3.07212 3.92511 3.07212Z" fill="#50CD89"/>
  <path d="M9.38702 3.07212C9.10712 3.07212 8.875 2.84 8.875 2.5601V0.512019C8.875 0.232115 9.10712 0 9.38702 0C9.66692 0 9.89904 0.232115 9.89904 0.512019V2.5601C9.89904 2.84 9.66692 3.07212 9.38702 3.07212Z" fill="#50CD89"/>
  <path d="M4.26668 9.04616C4.17793 9.04616 4.08918 9.02568 4.00725 8.99155C3.9185 8.95741 3.85023 8.90962 3.78197 8.84818C3.65908 8.71847 3.58398 8.5478 3.58398 8.36347C3.58398 8.27472 3.60447 8.18597 3.6386 8.10405C3.67273 8.02212 3.72052 7.94703 3.78197 7.87876C3.85023 7.81732 3.9185 7.76953 4.00725 7.73539C4.25302 7.63299 4.56023 7.6876 4.75139 7.87876C4.87427 8.00847 4.94937 8.18597 4.94937 8.36347C4.94937 8.40443 4.94254 8.45222 4.93571 8.50001C4.92889 8.54097 4.91523 8.58193 4.89475 8.62289C4.8811 8.66385 4.86062 8.70482 4.83331 8.74578C4.81283 8.77991 4.7787 8.81405 4.75139 8.84818C4.62168 8.97107 4.44418 9.04616 4.26668 9.04616Z" fill="#50CD89"/>
  <path d="M6.65633 9.04529C6.56758 9.04529 6.47883 9.02481 6.3969 8.99068C6.30815 8.95654 6.23988 8.90875 6.17161 8.84731C6.04873 8.7176 5.97363 8.54692 5.97363 8.3626C5.97363 8.27385 5.99411 8.1851 6.02825 8.10317C6.06238 8.02125 6.11017 7.94616 6.17161 7.87789C6.23988 7.81644 6.30815 7.76866 6.3969 7.73452C6.64267 7.62529 6.94988 7.68673 7.14104 7.87789C7.26392 8.0076 7.33902 8.1851 7.33902 8.3626C7.33902 8.40356 7.33219 8.45135 7.32536 8.49914C7.31854 8.5401 7.30488 8.58106 7.2844 8.62202C7.27075 8.66298 7.25027 8.70394 7.22296 8.74491C7.20248 8.77904 7.16834 8.81317 7.14104 8.84731C7.01133 8.97019 6.83383 9.04529 6.65633 9.04529Z" fill="#50CD89"/>
  <path d="M9.04597 9.04529C8.95722 9.04529 8.86847 9.02481 8.78655 8.99068C8.6978 8.95654 8.62953 8.90875 8.56126 8.84731C8.53395 8.81317 8.50665 8.77904 8.47934 8.74491C8.45203 8.70394 8.43155 8.66298 8.4179 8.62202C8.39742 8.58106 8.38376 8.5401 8.37694 8.49914C8.37011 8.45135 8.36328 8.40356 8.36328 8.3626C8.36328 8.1851 8.43838 8.0076 8.56126 7.87789C8.62953 7.81644 8.6978 7.76866 8.78655 7.73452C9.03915 7.62529 9.33953 7.68673 9.53068 7.87789C9.65357 8.0076 9.72867 8.1851 9.72867 8.3626C9.72867 8.40356 9.72184 8.45135 9.71501 8.49914C9.70818 8.5401 9.69453 8.58106 9.67405 8.62202C9.6604 8.66298 9.63992 8.70394 9.61261 8.74491C9.59213 8.77904 9.55799 8.81317 9.53068 8.84731C9.40097 8.97019 9.22347 9.04529 9.04597 9.04529Z" fill="#50CD89"/>
  <path d="M4.26668 11.4349C4.17793 11.4349 4.08918 11.4145 4.00725 11.3804C3.92533 11.3462 3.85023 11.2984 3.78197 11.2369C3.65908 11.1072 3.58398 10.9297 3.58398 10.7522C3.58398 10.6635 3.60447 10.5747 3.6386 10.4928C3.67273 10.404 3.72052 10.329 3.78197 10.2676C4.03456 10.015 4.49879 10.015 4.75139 10.2676C4.87427 10.3973 4.94937 10.5747 4.94937 10.7522C4.94937 10.9297 4.87427 11.1072 4.75139 11.2369C4.62168 11.3598 4.44418 11.4349 4.26668 11.4349Z" fill="#50CD89"/>
  <path d="M6.65633 11.4349C6.47883 11.4349 6.30133 11.3598 6.17161 11.2369C6.04873 11.1072 5.97363 10.9297 5.97363 10.7522C5.97363 10.6635 5.99411 10.5747 6.02825 10.4928C6.06238 10.404 6.11017 10.329 6.17161 10.2676C6.42421 10.015 6.88844 10.015 7.14104 10.2676C7.20248 10.329 7.25027 10.404 7.2844 10.4928C7.31854 10.5747 7.33902 10.6635 7.33902 10.7522C7.33902 10.9297 7.26392 11.1072 7.14104 11.2369C7.01133 11.3598 6.83383 11.4349 6.65633 11.4349Z" fill="#50CD89"/>
  <path d="M9.04597 11.4353C8.86847 11.4353 8.69097 11.3602 8.56126 11.2373C8.49982 11.1759 8.45203 11.1008 8.4179 11.0121C8.38376 10.9301 8.36328 10.8414 8.36328 10.7526C8.36328 10.6639 8.38376 10.5751 8.4179 10.4932C8.45203 10.4045 8.49982 10.3294 8.56126 10.2679C8.71828 10.1109 8.95722 10.0358 9.17568 10.0836C9.22347 10.0904 9.26444 10.1041 9.3054 10.1246C9.34636 10.1382 9.38732 10.1587 9.42828 10.186C9.46242 10.2065 9.49655 10.2406 9.53068 10.2679C9.65357 10.3976 9.72867 10.5751 9.72867 10.7526C9.72867 10.9301 9.65357 11.1076 9.53068 11.2373C9.40097 11.3602 9.22347 11.4353 9.04597 11.4353Z" fill="#50CD89"/>
  <path d="M12.4586 5.86388H0.85284C0.572936 5.86388 0.34082 5.63177 0.34082 5.35186C0.34082 5.07196 0.572936 4.83984 0.85284 4.83984H12.4586C12.7385 4.83984 12.9706 5.07196 12.9706 5.35186C12.9706 5.63177 12.7385 5.86388 12.4586 5.86388Z" fill="#50CD89"/>
  <path d="M9.38702 14.6783H3.92548C1.43365 14.6783 0 13.2446 0 10.7528V4.9499C0 2.45807 1.43365 1.02441 3.92548 1.02441H9.38702C11.8788 1.02441 13.3125 2.45807 13.3125 4.9499V10.7528C13.3125 13.2446 11.8788 14.6783 9.38702 14.6783ZM3.92548 2.04845C1.97298 2.04845 1.02404 2.9974 1.02404 4.9499V10.7528C1.02404 12.7053 1.97298 13.6542 3.92548 13.6542H9.38702C11.3395 13.6542 12.2885 12.7053 12.2885 10.7528V4.9499C12.2885 2.9974 11.3395 2.04845 9.38702 2.04845H3.92548Z" fill="#50CD89"/>
</svg>