<svg xmlns="http://www.w3.org/2000/svg" width="40" height="40" viewBox="0 0 40 40" fill="none">
  <g clip-path="url(#clip0_158_631)">
    <path d="M10.5469 0C7.94078 0 5.85938 2.18797 5.85938 4.76562C5.85938 7.35031 7.96219 9.45312 10.5469 9.45312C13.1316 9.45312 15.2344 7.35031 15.2344 4.76562C15.2344 2.18594 13.1503 0 10.5469 0ZM10.5469 7.10938C9.25453 7.10938 8.20312 6.05797 8.20312 4.76562C8.20312 3.45281 9.27641 2.34375 10.5469 2.34375C11.8173 2.34375 12.8906 3.45281 12.8906 4.76562C12.8906 6.05797 11.8392 7.10938 10.5469 7.10938Z" fill="white"/>
    <path d="M36.4844 0H19.9219C17.9834 0 16.4062 1.57711 16.4062 3.51562V11.5129L15.3763 10.483C14.7123 9.81891 13.8295 9.45312 12.8906 9.45312H10.5469C10.0501 9.45312 6.35617 9.45312 5.85938 9.45312C2.62852 9.45312 0 12.0816 0 15.3125C0 15.9788 0 21.3813 0 22.3438C0 24.2823 1.57711 25.8594 3.51562 25.8594C3.92633 25.8594 4.32086 25.7886 4.6875 25.6586V36.4844C4.6875 38.4229 6.26461 40 8.20312 40C9.10273 40 9.92445 39.6604 10.5469 39.1027C11.1693 39.6604 11.991 40 12.8906 40C14.8291 40 16.4062 38.4229 16.4062 36.4844V20.9722C17.3023 21.2882 18.2948 21.2273 19.1505 20.801L23.0962 18.8281H36.4844C38.4229 18.8281 40 17.251 40 15.3125V3.51562C40 1.57711 38.4229 0 36.4844 0ZM22.7898 16.3609L18.1037 18.7039C17.6641 18.923 17.118 18.8531 16.7495 18.4847L16.0631 17.7982C15.3384 17.0735 14.0657 17.5664 14.0626 18.6232C14.0626 18.6244 14.0624 18.6255 14.0624 18.6266V36.4844C14.0624 37.1305 13.5367 37.6562 12.8905 37.6562C12.2444 37.6562 11.7187 37.1305 11.7187 36.4844V24.6875C11.7187 24.0403 11.194 23.5156 10.5468 23.5156C9.89961 23.5156 9.37492 24.0403 9.37492 24.6875V36.4844C9.37492 37.1305 8.84922 37.6562 8.20305 37.6562C7.55688 37.6562 7.03117 37.1305 7.03117 36.4844V22.3438C7.03117 21.4602 7.03117 16.0347 7.03117 15.3125C7.03117 14.6653 6.50648 14.1406 5.8593 14.1406C5.21211 14.1406 4.68742 14.6653 4.68742 15.3125C4.68742 15.9788 4.68742 21.3813 4.68742 22.3438C4.68742 22.9899 4.16172 23.5156 3.51555 23.5156C2.86937 23.5156 2.34367 22.9899 2.34367 22.3438C2.34375 21.4602 2.34375 16.0347 2.34375 15.3125C2.34375 13.374 3.92086 11.7969 5.85938 11.7969C6.74297 11.7969 12.1684 11.7969 12.8906 11.7969C13.2034 11.7969 13.4977 11.9188 13.7191 12.1403L17.2118 15.633C17.5684 15.9897 18.1134 16.078 18.5645 15.8526L21.7417 14.2639C22.3233 13.9729 23.0241 14.2081 23.3139 14.7883C23.6038 15.368 23.3695 16.071 22.7898 16.3609ZM37.6562 15.3125C37.6562 15.9587 37.1305 16.4844 36.4844 16.4844H25.5796C25.5867 16.4643 25.5945 16.4446 25.6013 16.4244C25.77 15.9181 25.8206 15.3917 25.7561 14.8775L32.1647 11.6732C32.7436 11.3838 32.9782 10.6798 32.6887 10.1009C32.3993 9.52203 31.6953 9.28734 31.1165 9.57687L24.7083 12.781C23.6816 11.7879 22.0823 11.4727 20.6932 12.1678L18.75 13.1395V3.51562C18.75 2.86945 19.2757 2.34375 19.9219 2.34375H36.4844C37.1305 2.34375 37.6562 2.86945 37.6562 3.51562V15.3125Z" fill="white"/>
  </g>
  <defs>
    <clipPath id="clip0_158_631">
      <rect width="40" height="40" fill="white"/>
    </clipPath>
  </defs>
</svg>