<svg xmlns="http://www.w3.org/2000/svg" width="24" height="25" viewBox="0 0 24 25" fill="none">
  <path fill-rule="evenodd" clip-rule="evenodd" d="M12 2.43066C9.23858 2.43066 7 4.66924 7 7.43066V8.60186C4.89351 8.84352 3.26575 10.5208 3.11117 12.6595C3.04652 13.5541 3 14.5157 3 15.4307C3 16.3457 3.04652 17.3073 3.11118 18.2019C3.27137 20.4183 5.01376 22.1391 7.23151 22.2801C8.55778 22.3644 10.1795 22.4307 12 22.4307C13.8205 22.4307 15.4422 22.3644 16.7685 22.2801C18.9862 22.1391 20.7286 20.4183 20.8888 18.2019C20.9535 17.3073 21 16.3457 21 15.4307C21 14.5157 20.9535 13.5541 20.8888 12.6595C20.7342 10.5208 19.1065 8.84352 17 8.60187V7.43066C17 4.66924 14.7614 2.43066 12 2.43066ZM15 8.49018V7.43066C15 5.77381 13.6569 4.43066 12 4.43066C10.3431 4.43066 9 5.77381 9 7.43066V8.49018C9.91724 8.45383 10.9239 8.43066 12 8.43066C13.0761 8.43066 14.0828 8.45383 15 8.49018ZM13 16.1631C13.5978 15.8173 14 15.171 14 14.4307C14 13.3261 13.1046 12.4307 12 12.4307C10.8954 12.4307 10 13.3261 10 14.4307C10 15.171 10.4022 15.8173 11 16.1631V17.4307C11 17.983 11.4477 18.4307 12 18.4307C12.5523 18.4307 13 17.983 13 17.4307V16.1631Z" fill="black" fill-opacity="0.2"/>
</svg>