<svg width="146" height="87" viewBox="0 0 146 87" fill="none" xmlns="http://www.w3.org/2000/svg">
<g clip-path="url(#clip0_29_1055)">
<path d="M51.7454 28.8682C51.5248 29.8657 51.2105 31.6581 50.8041 34.2453C48.9719 34.635 47.4297 34.8965 46.174 35.0315C44.9184 35.1666 43.6558 35.2342 42.3828 35.2342C40.1616 35.2342 38.173 35.0142 36.4172 34.5761C34.6614 34.1362 33.1227 33.3292 31.7993 32.1551C30.4759 30.981 29.5016 29.5401 28.8729 27.8344C28.246 26.1286 27.9316 24.3362 27.9316 22.4607C27.9316 20.3826 28.2964 18.3686 29.0258 16.4169C29.7552 14.4652 30.7764 12.8685 32.0911 11.6268C33.4058 10.3852 34.9028 9.50545 36.5805 8.99111C38.2599 8.47505 40.0157 8.21875 41.8462 8.21875C43.5759 8.21875 45.2206 8.43349 46.7819 8.8647C48.3415 9.2959 49.6527 10.0007 50.7121 10.9792C51.7715 11.9576 52.586 13.1352 53.1539 14.512C53.7218 15.887 54.0066 17.4196 54.0066 19.108C54.0066 19.9012 53.9215 20.7203 53.753 21.5637L35.106 21.5896C35.0713 22.2148 35.0556 22.7153 35.0556 23.0859C35.0556 24.2185 35.2501 25.2592 35.6409 26.2065C36.0317 27.1538 36.5996 27.9573 37.3446 28.6171C38.0914 29.2769 38.9806 29.7635 40.0157 30.0753C41.0507 30.3887 42.0667 30.5446 43.0688 30.5446C44.2393 30.5446 45.5071 30.4181 46.8722 30.1636C48.2373 29.9107 49.8611 29.4778 51.7437 28.87L51.7454 28.8682ZM35.3109 18.6197L47.2161 18.6457C47.2161 17.8369 47.19 17.2395 47.1397 16.8516C47.0893 16.4636 46.9747 16.022 46.7958 15.525C46.6169 15.028 46.3755 14.5899 46.0716 14.2124C45.7659 13.8331 45.4099 13.5179 45.0035 13.2651C44.5971 13.0123 44.1265 12.8183 43.5916 12.685C43.0566 12.5499 42.4853 12.4823 41.8739 12.4823C41.1619 12.4823 40.4707 12.5914 39.8003 12.8114C39.1299 13.0296 38.5152 13.3499 37.9559 13.7708C37.3967 14.1916 36.9417 14.6626 36.5944 15.1856C36.247 15.7086 35.9882 16.2091 35.818 16.6888C35.6478 17.1685 35.4794 17.8127 35.3092 18.6214L35.3109 18.6197Z" fill="#7463D0"/>
<path d="M84.1576 34.6265C82.7492 34.5936 81.655 34.5763 80.8753 34.5763C80.0277 34.5763 78.8572 34.5936 77.3636 34.6265L77.5894 30.2122C76.8426 31.1768 76.2035 31.9197 75.6686 32.4445C75.1337 32.9692 74.4737 33.4558 73.6835 33.9026C72.8951 34.3511 72.0424 34.6854 71.1271 34.9053C70.2119 35.1252 69.2619 35.2343 68.2789 35.2343C66.6499 35.2343 65.125 34.9382 63.7009 34.3459C62.2768 33.7537 61.0646 32.9207 60.0643 31.847C59.0639 30.7733 58.3258 29.497 57.8517 28.0164C57.3776 26.5374 57.1396 24.9944 57.1396 23.3874C57.1396 21.1725 57.5634 19.0112 58.4109 16.9054C59.2584 14.7996 60.4186 13.0955 61.893 11.7933C63.3675 10.491 65.0365 9.56969 66.9 9.02765C68.7634 8.48734 70.7624 8.21545 72.8986 8.21545C74.4408 8.21545 76.1861 8.35919 78.1347 8.64666C78.2598 6.44906 78.324 4.14063 78.324 1.72137V0C79.9201 0.0346351 81.1427 0.0502209 81.9902 0.0502209C83.093 0.0502209 84.3331 0.0329034 85.7085 0C85.3351 4.29649 84.9843 10.1429 84.6543 17.541C84.3244 24.9408 84.1594 30.6348 84.1594 34.6265H84.1576ZM77.8725 13.4696C76.6012 13.1319 75.3786 12.9622 74.208 12.9622C72.8673 12.9622 71.5873 13.1492 70.3664 13.5198C69.1455 13.8922 68.0636 14.526 67.1223 15.423C66.181 16.3201 65.4568 17.47 64.9479 18.8727C64.439 20.2771 64.1855 21.6296 64.1855 22.9319C64.1855 24.2342 64.4182 25.4274 64.8854 26.508C65.3525 27.5904 66.0768 28.4441 67.0597 29.0693C68.0427 29.6944 69.1542 30.0079 70.3925 30.0079C71.3251 30.0079 72.1726 29.8434 72.935 29.5126C73.6974 29.1818 74.3939 28.6762 75.0208 27.9904C75.6478 27.3046 76.1775 26.4214 76.6099 25.3391C77.0423 24.2567 77.3515 22.8194 77.539 21.027C77.6589 19.7074 77.77 17.1877 77.8725 13.4679V13.4696Z" fill="#7463D0"/>
<path d="M116.698 34.6269C115.205 34.594 114.058 34.5766 113.261 34.5766C112.259 34.5766 111.123 34.594 109.85 34.6269L109.897 30.4152C109.421 31.1252 109.006 31.6967 108.65 32.1279C108.294 32.5591 107.827 32.9817 107.252 33.3956C106.676 33.8095 106.049 34.1402 105.37 34.3844C104.691 34.6286 103.916 34.8329 103.042 34.994C102.169 35.155 101.241 35.2347 100.257 35.2347C98.3568 35.2347 96.7035 34.9594 95.2967 34.4104C93.89 33.8614 92.775 33.0285 91.9518 31.9115C91.1286 30.7945 90.7188 29.1978 90.7188 27.1162V26.5829L91.1303 20.0385L91.5159 11.4144C91.5333 10.7217 91.5419 9.85928 91.5419 8.82715C93.1501 8.86178 94.4127 8.87737 95.328 8.87737C96.2936 8.87737 97.4624 8.86005 98.8344 8.82715L97.9886 20.3953C97.9365 21.2923 97.8983 22.0491 97.8723 22.6656C97.8462 23.2839 97.8341 23.7272 97.8341 23.9973C97.8341 25.2148 98.0164 26.2261 98.3794 27.0279C98.7441 27.8314 99.3797 28.4445 100.285 28.867C101.191 29.2896 102.162 29.5009 103.195 29.5009C104.229 29.5009 105.111 29.3156 105.991 28.9432C106.787 28.6055 107.469 28.131 108.037 27.5232C108.605 26.9153 109.083 26.0945 109.473 25.0624C109.762 24.3177 109.981 23.2873 110.133 21.9677C110.252 21.0378 110.363 19.4394 110.463 17.1725C110.604 14.4328 110.701 11.6516 110.753 8.82715C112.435 8.86178 113.716 8.87737 114.6 8.87737C115.602 8.87737 116.731 8.86005 117.987 8.82715C117.784 11.2464 117.573 14.2683 117.353 17.8964C117.132 21.5244 116.981 24.5169 116.896 26.8772C116.811 29.2359 116.743 31.8197 116.693 34.6269H116.698Z" fill="#7463D0"/>
<path d="M19.7171 71.6792C19.6824 71.9493 19.5938 72.4533 19.4496 73.1893C19.3055 73.9253 19.1822 74.6474 19.0814 75.3574C17.8432 75.6449 16.6518 75.8389 15.5073 75.941C14.3628 76.0432 13.3573 76.0934 12.4924 76.0934C10.6601 76.0934 8.96859 75.8475 7.4177 75.3574C5.86682 74.8673 4.51393 74.0603 3.36075 72.9347C2.20757 71.8108 1.36006 70.415 0.81647 68.749C0.27288 67.0831 0.00195312 65.3288 0.00195312 63.4845C0.00195312 60.9977 0.443077 58.6391 1.32533 56.4068C2.20757 54.1746 3.59694 52.4238 5.4969 51.1561C7.39686 49.8885 9.98283 49.2529 13.2565 49.2529C15.6653 49.2529 18.0134 49.575 20.3041 50.2175C20.4066 51.6549 20.4986 52.8394 20.5837 53.7693C18.972 53.2619 17.6573 52.9191 16.6396 52.7424C15.6219 52.5658 14.6806 52.4757 13.8157 52.4757C12.3239 52.4757 10.9866 52.7459 9.80915 53.2879C8.62993 53.83 7.62611 54.5989 6.79423 55.5964C5.96234 56.5938 5.36491 57.7784 5.0002 59.1482C4.6355 60.518 4.45314 61.9138 4.45314 63.3338C4.45314 65.2457 4.75012 66.9203 5.34407 68.3559C5.93803 69.7933 6.97658 70.9051 8.45973 71.6913C9.94288 72.4775 11.6101 72.8706 13.458 72.8706C15.3058 72.8706 17.3413 72.4741 19.7171 71.6792Z" fill="#7463D0"/>
<path d="M26.992 53.922C27.1448 53.1773 27.3063 52.0794 27.4748 50.6247C29.5102 50.1 31.2782 49.7415 32.7787 49.5458C34.2792 49.3519 35.7432 49.2549 37.1673 49.2549C38.6939 49.2549 40.1232 49.3952 41.4535 49.674C42.7856 49.9528 43.8919 50.4065 44.7741 51.0317C45.6564 51.6568 46.2416 52.3755 46.5299 53.1877C46.8182 53.9999 46.9624 54.871 46.9624 55.8009C46.9624 56.9681 46.8738 58.925 46.6967 61.6733C46.5195 64.4216 46.3858 66.9621 46.292 69.2965C46.1982 71.6309 46.1531 73.7108 46.1531 75.5378C45.2361 75.5049 44.4893 75.4875 43.9127 75.4875C43.3691 75.4875 42.5963 75.5049 41.5942 75.5378L42.1343 68.6125L42.5199 60.4195C41.9259 60.8767 41.4796 61.1971 41.1826 61.3841C40.8856 61.5711 40.5504 61.7443 40.1771 61.9036C39.8037 62.0647 39.3921 62.2171 38.9423 62.3608C38.4924 62.5046 37.6189 62.7539 36.3198 63.1089C35.0208 63.4639 34.1003 63.7341 33.5585 63.9211C32.3879 64.2935 31.4622 64.6658 30.7832 65.0381C30.1041 65.4104 29.5362 65.8157 29.0777 66.2555C28.6192 66.6954 28.2962 67.1353 28.1104 67.5751C27.8898 68.1172 27.7787 68.6835 27.7787 69.274C27.7787 70.1866 28.0496 70.9832 28.5932 71.6586C29.1351 72.3357 29.8176 72.805 30.6408 73.0665C31.464 73.3298 32.4504 73.4596 33.6053 73.4596C34.3174 73.4596 35.0642 73.4112 35.844 73.3124C36.6237 73.2137 37.6675 72.9592 38.9735 72.547C38.7356 73.2016 38.4647 74.2078 38.159 75.5655C36.9207 75.8027 35.9117 75.9499 35.1319 76.0088C34.3521 76.0677 33.614 76.0971 32.9193 76.0971C30.5956 76.0971 28.7808 75.827 27.4748 75.2849C26.1688 74.7446 25.1927 73.9203 24.5484 72.812C23.9041 71.7054 23.5811 70.5001 23.5811 69.1978C23.5811 68.4375 23.6957 67.7345 23.9249 67.092C24.1542 66.4495 24.4633 65.8659 24.8541 65.3412C25.2448 64.8164 25.8006 64.2935 26.5213 63.7687C27.242 63.244 27.9975 62.8128 28.786 62.4751C29.5744 62.1374 30.4949 61.8032 31.5473 61.4724C32.5998 61.1417 34.2861 60.6983 36.6099 60.1407C37.3566 59.9727 37.9923 59.7978 38.5185 59.6212C39.0447 59.4428 39.5119 59.2696 39.9183 59.1016C40.3247 58.9337 40.6807 58.7345 40.9864 58.5059C41.292 58.2773 41.5716 57.9985 41.8269 57.6695C42.0822 57.3405 42.2681 57.0062 42.3862 56.6668C42.5042 56.3291 42.565 55.9914 42.565 55.652C42.565 54.8242 42.2941 54.1142 41.7505 53.5219C41.2069 52.9297 40.5001 52.5158 39.6265 52.2785C38.753 52.0413 37.7231 51.9235 36.5352 51.9235C35.4324 51.9235 34.3 52.0118 33.1382 52.1902C31.9763 52.3686 30.9742 52.5799 30.1354 52.824C29.2966 53.0699 28.2476 53.4371 26.9937 53.9272L26.992 53.922Z" fill="#7463D0"/>
<path d="M52.5081 87C52.8485 82.636 53.1681 76.7013 53.4668 69.1924C53.7655 61.6835 53.9322 55.5444 53.9652 50.7751C56.7457 50.1829 58.9704 49.7811 60.6412 49.5698C62.3119 49.3586 63.9861 49.2529 65.6637 49.2529C68.3087 49.2529 70.6064 49.672 72.555 50.5085C74.5053 51.3449 76.0215 52.8169 77.1069 54.9227C78.1923 57.0285 78.7342 59.4097 78.7342 62.0645C78.7342 63.9088 78.4789 65.6873 77.97 67.4035C77.4612 69.1196 76.6849 70.6557 75.6411 72.0082C74.5974 73.3607 73.3365 74.3807 71.8603 75.0648C70.3841 75.7505 68.7377 76.0917 66.9211 76.0917C65.8357 76.0917 64.7919 75.9601 63.7898 75.6986C62.7877 75.4371 61.9176 75.0942 61.1795 74.6717C60.4414 74.2491 59.8214 73.7763 59.3213 73.2516C58.8211 72.7269 58.2132 71.9407 57.5012 70.893L57.1903 80.9389C57.1208 82.5789 57.0861 83.7634 57.0861 84.4907V87.0018C56.2247 86.9671 55.4744 86.9515 54.8319 86.9515C54.2414 86.9515 53.4651 86.9689 52.5029 87.0018L52.5081 87ZM58.3331 53.7936L58.1542 55.721L58.0274 58.3585C57.9597 59.7456 57.9093 60.8747 57.8746 61.7458C57.8398 62.6169 57.8242 63.2299 57.8242 63.585C57.8242 64.837 57.9562 66.0198 58.2184 67.1368C58.4807 68.2538 59.0069 69.272 59.7954 70.1933C60.5838 71.1146 61.513 71.8125 62.5811 72.2853C63.6491 72.7598 64.7519 72.9953 65.8878 72.9953C67.4821 72.9953 68.927 72.5555 70.2261 71.6757C71.5234 70.796 72.5359 69.485 73.2653 67.7429C73.9947 66.0007 74.3594 64.0993 74.3594 62.035C74.3594 59.9708 73.9774 58.1628 73.2149 56.6579C72.4525 55.153 71.4261 54.0672 70.1375 53.3988C68.8488 52.7303 67.39 52.3961 65.761 52.3961C63.4373 52.3961 60.9607 52.8619 58.3331 53.7919V53.7936Z" fill="#7463D0"/>
<path d="M83.8504 75.5342L84.2915 69.1423L84.7847 58.2339L84.9914 49.8366L87.3342 49.8626L89.6249 49.8366C89.4339 52.4741 89.262 55.2362 89.1057 58.1196C88.9494 61.003 88.8243 64.1531 88.7288 67.5698C88.6333 70.9866 88.5864 73.6414 88.5864 75.5359C87.5166 75.503 86.7524 75.4857 86.2939 75.4857C85.8702 75.4857 85.0539 75.503 83.8486 75.5359L83.8504 75.5342ZM85.0209 44.3071C85.0713 42.7174 85.0973 41.5173 85.0973 40.7051C86.0299 40.7397 86.8531 40.7553 87.5652 40.7553C88.4631 40.7553 89.2776 40.738 90.007 40.7051C89.9723 41.2298 89.9219 42.4299 89.8542 44.3071C88.9389 44.2898 88.1505 44.2812 87.4888 44.2812C86.8271 44.2812 86.0039 44.2898 85.0209 44.3071Z" fill="#7463D0"/>
<path d="M108.451 72.1864C108.263 73.016 108.06 74.1139 107.84 75.4837C106.686 75.7539 105.769 75.9236 105.092 75.9911C104.413 76.0586 103.769 76.0933 103.159 76.0933C101.65 76.0933 100.432 75.9028 99.5086 75.5218C98.5846 75.1408 97.8761 74.533 97.3846 73.6948C96.8931 72.8584 96.6465 71.7206 96.6465 70.2832C96.6465 70.0979 96.6552 69.7672 96.6725 69.2944C96.6899 68.8216 96.7767 67.173 96.9313 64.3485L97.553 52.9847H94.1543C94.222 52.2747 94.2811 51.2599 94.3332 49.9403H97.8014C97.8865 48.993 97.9716 47.379 98.0584 45.0948C99.6492 44.79 100.993 44.5026 102.093 44.2324C101.975 46.7348 101.909 48.638 101.891 49.9403H108.961C108.876 51.0053 108.826 52.0201 108.809 52.9847H101.766L101.087 67.2665L101.063 68.3575C101.063 69.5923 101.202 70.5188 101.481 71.1353C101.761 71.7535 102.18 72.1968 102.739 72.467C103.298 72.7371 103.882 72.8722 104.491 72.8722C104.915 72.8722 105.372 72.8393 105.863 72.77C106.355 72.7025 107.218 72.5085 108.454 72.1864H108.451Z" fill="#7463D0"/>
<path d="M113.819 53.922C113.972 53.1773 114.133 52.0794 114.302 50.6247C116.337 50.1 118.105 49.7415 119.606 49.5458C121.106 49.3519 122.57 49.2549 123.994 49.2549C125.521 49.2549 126.949 49.3952 128.281 49.674C129.613 49.9528 130.719 50.4065 131.601 51.0317C132.484 51.6568 133.069 52.3755 133.357 53.1877C133.645 53.9999 133.79 54.871 133.79 55.8009C133.79 56.9681 133.701 58.925 133.524 61.6733C133.347 64.4216 133.213 66.9621 133.119 69.2965C133.025 71.6309 132.98 73.7108 132.98 75.5378C132.063 75.5049 131.316 75.4875 130.74 75.4875C130.196 75.4875 129.423 75.5049 128.421 75.5378L128.961 68.6125L129.347 60.4195C128.753 60.8767 128.307 61.1971 128.01 61.3841C127.713 61.5711 127.378 61.7443 127.004 61.9036C126.631 62.0647 126.219 62.2171 125.769 62.3608C125.32 62.5046 124.446 62.7539 123.147 63.1089C121.85 63.4639 120.927 63.7341 120.386 63.9211C119.215 64.2935 118.289 64.6658 117.61 65.0381C116.931 65.4104 116.363 65.8157 115.905 66.2555C115.446 66.6954 115.123 67.1353 114.938 67.5751C114.717 68.1172 114.606 68.6835 114.606 69.274C114.606 70.1866 114.877 70.9832 115.42 71.6586C115.962 72.3357 116.645 72.805 117.468 73.0665C118.291 73.3298 119.278 73.4596 120.432 73.4596C121.145 73.4596 121.891 73.4112 122.671 73.3124C123.451 73.2137 124.495 72.9592 125.801 72.547C125.563 73.2016 125.292 74.2078 124.986 75.5655C123.748 75.8027 122.739 75.9499 121.959 76.0088C121.179 76.0677 120.441 76.0971 119.746 76.0971C117.423 76.0971 115.608 75.827 114.302 75.2849C112.996 74.7446 112.02 73.9203 111.376 72.812C110.731 71.7054 110.408 70.5001 110.408 69.1978C110.408 68.4375 110.523 67.7345 110.752 67.092C110.981 66.4495 111.29 65.8659 111.681 65.3412C112.072 64.8164 112.628 64.2935 113.348 63.7687C114.069 63.244 114.825 62.8128 115.613 62.4751C116.402 62.1374 117.322 61.8032 118.374 61.4724C119.427 61.1417 121.113 60.6983 123.439 60.1407C124.186 59.9727 124.821 59.7978 125.347 59.6212C125.874 59.4428 126.339 59.2696 126.747 59.1016C127.154 58.9337 127.51 58.7345 127.815 58.5059C128.121 58.2773 128.401 57.9985 128.656 57.6695C128.911 57.3405 129.097 57.0062 129.215 56.6668C129.333 56.3291 129.394 55.9914 129.394 55.652C129.394 54.8242 129.123 54.1142 128.579 53.5219C128.036 52.9297 127.329 52.5158 126.455 52.2785C125.582 52.0413 124.552 51.9235 123.364 51.9235C122.261 51.9235 121.129 52.0118 119.967 52.1902C118.805 52.3686 117.803 52.5799 116.964 52.824C116.125 53.0699 115.078 53.4371 113.823 53.9272L113.819 53.922Z" fill="#7463D0"/>
<path d="M139.896 75.5337C140.234 70.3246 140.564 64.1526 140.885 57.016C141.106 51.8242 141.266 46.454 141.368 40.9072L143.735 40.9332C144.227 40.9332 144.982 40.9245 146.002 40.9072L145.215 55.7986L144.658 70.8666L144.557 75.5337C143.555 75.5008 142.808 75.4835 142.316 75.4835C142.113 75.4835 141.306 75.5008 139.897 75.5337H139.896Z" fill="#7463D0"/>
</g>
<defs>
<clipPath id="clip0_29_1055">
<rect width="146" height="87" fill="white"/>
</clipPath>
</defs>
</svg>
