<svg xmlns="http://www.w3.org/2000/svg" width="220" height="131" viewBox="0 0 220 131" fill="none">
  <g clip-path="url(#clip0_29_1145)">
    <path d="M77.9726 43.4689C77.6403 44.9708 77.1666 47.6697 76.5542 51.5654C73.7933 52.1521 71.4695 52.5459 69.5774 52.7493C67.6854 52.9526 65.7828 53.0543 63.8646 53.0543C60.5175 53.0543 57.5211 52.7232 54.8753 52.0635C52.2296 51.4011 49.911 50.186 47.9168 48.4181C45.9227 46.6501 44.4546 44.4806 43.5073 41.9121C42.5625 39.3436 42.0889 36.6448 42.0889 33.8208C42.0889 30.6917 42.6384 27.659 43.7376 24.7203C44.8367 21.7815 46.3754 19.3773 48.3565 17.5077C50.3375 15.6381 52.5933 14.3134 55.1213 13.539C57.6519 12.7619 60.2977 12.376 63.056 12.376C65.6624 12.376 68.1407 12.6993 70.4934 13.3486C72.8434 13.9979 74.8192 15.0592 76.4155 16.5325C78.0119 18.0058 79.2392 19.7789 80.095 21.852C80.9507 23.9224 81.3799 26.2301 81.3799 28.7725C81.3799 29.9668 81.2517 31.2002 80.9978 32.47L52.8995 32.5092C52.8472 33.4505 52.8236 34.2041 52.8236 34.7621C52.8236 36.4675 53.1167 38.0346 53.7056 39.461C54.2944 40.8873 55.1501 42.0973 56.2728 43.0908C57.3981 44.0842 58.738 44.817 60.2977 45.2863C61.8574 45.7583 63.3883 45.993 64.8983 45.993C66.6621 45.993 68.5725 45.8026 70.6294 45.4193C72.6864 45.0386 75.1332 44.3867 77.97 43.4715L77.9726 43.4689ZM53.2083 28.0371L71.1476 28.0763C71.1476 26.8585 71.1083 25.9589 71.0324 25.3748C70.9566 24.7907 70.7838 24.1258 70.5143 23.3774C70.2447 22.629 69.881 21.9693 69.423 21.4008C68.9624 20.8298 68.426 20.3552 67.8136 19.9745C67.2012 19.5938 66.492 19.3017 65.686 19.1009C64.88 18.8976 64.019 18.7959 63.0978 18.7959C62.0249 18.7959 60.9833 18.9601 59.9732 19.2913C58.963 19.6199 58.0366 20.1023 57.194 20.7359C56.3513 21.3695 55.6657 22.0788 55.1423 22.8663C54.6189 23.6538 54.2289 24.4074 53.9725 25.1297C53.716 25.852 53.4622 26.822 53.2057 28.0398L53.2083 28.0371Z" fill="white"/>
    <path d="M126.813 52.1387C124.69 52.0892 123.042 52.0631 121.867 52.0631C120.59 52.0631 118.826 52.0892 116.575 52.1387L116.915 45.492C115.79 46.9444 114.827 48.0631 114.021 48.8532C113.215 49.6433 112.22 50.376 111.03 51.0487C109.842 51.7241 108.557 52.2274 107.178 52.5585C105.798 52.8897 104.367 53.054 102.886 53.054C100.431 53.054 98.1334 52.6081 95.9875 51.7163C93.8416 50.8245 92.0149 49.5702 90.5075 47.9535C89.0002 46.3368 87.888 44.415 87.1735 42.1856C86.4591 39.9587 86.1006 37.6353 86.1006 35.2155C86.1006 31.8804 86.7391 28.6261 88.0162 25.4553C89.2933 22.2844 91.0414 19.7186 93.2632 17.7577C95.485 15.7968 97.9999 14.4095 100.808 13.5934C103.616 12.7798 106.628 12.3704 109.847 12.3704C112.171 12.3704 114.801 12.5868 117.737 13.0197C117.925 9.71066 118.022 6.23474 118.022 2.59194V0C120.427 0.0521518 122.27 0.07562 123.547 0.07562C125.208 0.07562 127.077 0.0495442 129.15 0C128.587 6.46943 128.058 15.2726 127.561 26.4123C127.064 37.5545 126.815 46.1282 126.815 52.1387H126.813ZM117.342 20.2818C115.426 19.7733 113.584 19.5178 111.82 19.5178C109.8 19.5178 107.871 19.7994 106.031 20.3574C104.192 20.9181 102.561 21.8724 101.143 23.2232C99.7245 24.5739 98.6332 26.3053 97.8664 28.4175C97.0997 30.5322 96.7176 32.5688 96.7176 34.5297C96.7176 36.4906 97.0683 38.2872 97.7722 39.9143C98.4762 41.5441 99.5675 42.8296 101.049 43.771C102.53 44.7123 104.205 45.1843 106.071 45.1843C107.476 45.1843 108.753 44.9366 109.902 44.4385C111.051 43.9405 112.1 43.1791 113.045 42.1464C113.99 41.1138 114.788 39.784 115.439 38.1542C116.091 36.5245 116.557 34.3602 116.839 31.6613C117.02 29.6743 117.187 25.8803 117.342 20.2792V20.2818Z" fill="white"/>
    <path d="M175.846 52.1389C173.596 52.0893 171.869 52.0632 170.667 52.0632C169.157 52.0632 167.446 52.0893 165.528 52.1389L165.598 45.7972C164.881 46.8663 164.256 47.7268 163.719 48.3761C163.183 49.0254 162.479 49.6617 161.613 50.2849C160.744 50.9081 159.799 51.4061 158.776 51.7738C157.753 52.1415 156.586 52.4492 155.269 52.6917C153.953 52.9342 152.555 53.0541 151.072 53.0541C148.209 53.0541 145.717 52.6395 143.598 51.8129C141.478 50.9863 139.798 49.7321 138.557 48.0502C137.317 46.3683 136.699 43.9641 136.699 40.8298V40.0266L137.319 30.1725L137.9 17.1868C137.927 16.1437 137.94 14.8451 137.94 13.291C140.363 13.3432 142.266 13.3666 143.645 13.3666C145.1 13.3666 146.861 13.3406 148.928 13.291L147.654 30.7097C147.575 32.0604 147.518 33.1999 147.478 34.1283C147.439 35.0592 147.421 35.7267 147.421 36.1335C147.421 37.9666 147.696 39.4895 148.243 40.6968C148.792 41.9067 149.75 42.8298 151.113 43.466C152.479 44.1023 153.942 44.4204 155.499 44.4204C157.057 44.4204 158.386 44.1414 159.713 43.5808C160.911 43.0723 161.94 42.3578 162.796 41.4425C163.651 40.5273 164.371 39.2913 164.96 37.7372C165.394 36.6159 165.724 35.0644 165.954 33.0774C166.132 31.6771 166.3 29.2703 166.451 25.857C166.663 21.7318 166.81 17.544 166.888 13.291C169.422 13.3432 171.353 13.3666 172.685 13.3666C174.195 13.3666 175.896 13.3406 177.788 13.291C177.482 16.9338 177.165 21.4841 176.833 26.947C176.501 32.4098 176.273 36.9158 176.145 40.4699C176.016 44.0214 175.914 47.912 175.838 52.1389H175.846Z" fill="white"/>
    <path d="M29.7107 107.93C29.6583 108.337 29.5249 109.096 29.3076 110.204C29.0904 111.312 28.9046 112.4 28.7529 113.469C26.887 113.902 25.0917 114.194 23.3671 114.348C21.6426 114.501 20.1274 114.577 18.8241 114.577C16.0632 114.577 13.5143 114.207 11.1773 113.469C8.8404 112.731 6.80179 111.516 5.06413 109.821C3.32647 108.129 2.04939 106.027 1.23028 103.518C0.411175 101.01 0.00292969 98.3683 0.00292969 95.5913C0.00292969 91.8468 0.667638 88.2952 1.99705 84.9341C3.32647 81.5729 5.42004 78.9366 8.28299 77.0278C11.1459 75.1191 15.0426 74.1621 19.9756 74.1621C23.6053 74.1621 27.1434 74.6471 30.5952 75.6145C30.7496 77.7788 30.8883 79.5624 31.0165 80.9627C28.588 80.1987 26.6069 79.6824 25.0734 79.4164C23.5399 79.1504 22.1215 79.0148 20.8182 79.0148C18.5703 79.0148 16.5552 79.4216 14.7809 80.2378C13.004 81.054 11.4914 82.2117 10.2379 83.7137C8.98434 85.2157 8.0841 86.9993 7.53454 89.0619C6.98498 91.1245 6.7102 93.2262 6.7102 95.3644C6.7102 98.2432 7.1577 100.765 8.0527 102.926C8.9477 105.091 10.5126 106.765 12.7475 107.949C14.9824 109.132 17.4947 109.724 20.2791 109.724C23.0636 109.724 26.1307 109.127 29.7107 107.93Z" fill="white"/>
    <path d="M40.6729 81.1925C40.9032 80.0712 41.1466 78.418 41.4004 76.2276C44.4675 75.4375 47.1316 74.8978 49.3926 74.6031C51.6537 74.3111 53.8598 74.165 56.0057 74.165C58.306 74.165 60.4598 74.3762 62.4643 74.7961C64.4716 75.2159 66.1386 75.8991 67.468 76.8404C68.7974 77.7818 69.6793 78.8639 70.1137 80.0869C70.5481 81.3098 70.7653 82.6214 70.7653 84.0217C70.7653 85.7792 70.6319 88.7258 70.3649 92.864C70.098 97.0023 69.8965 100.828 69.7552 104.343C69.6139 107.858 69.5458 110.989 69.5458 113.74C68.1641 113.691 67.0388 113.665 66.17 113.665C65.3509 113.665 64.1863 113.691 62.6763 113.74L63.4902 103.313L64.0712 90.9762C63.1762 91.6646 62.5036 92.147 62.0561 92.4286C61.6086 92.7102 61.1035 92.971 60.5409 93.2109C59.9782 93.4534 59.358 93.6828 58.6802 93.8993C58.0024 94.1157 56.6861 94.4912 54.7286 95.0257C52.7711 95.5603 51.3841 95.9671 50.5676 96.2487C48.8038 96.8093 47.409 97.37 46.3857 97.9306C45.3625 98.4912 44.5068 99.1014 43.8159 99.7637C43.125 100.426 42.6383 101.088 42.3582 101.751C42.0259 102.567 41.8584 103.42 41.8584 104.309C41.8584 105.683 42.2666 106.882 43.0858 107.899C43.9022 108.919 44.9307 109.626 46.1711 110.019C47.4116 110.416 48.898 110.611 50.6383 110.611C51.7113 110.611 52.8365 110.538 54.0116 110.39C55.1866 110.241 56.7594 109.858 58.7273 109.237C58.3688 110.223 57.9606 111.738 57.5 113.782C55.6341 114.139 54.1136 114.361 52.9386 114.45C51.7636 114.538 50.6514 114.583 49.6046 114.583C46.1031 114.583 43.3684 114.176 41.4004 113.36C39.4325 112.546 37.9617 111.305 36.9909 109.636C36.02 107.97 35.5332 106.155 35.5332 104.194C35.5332 103.049 35.7059 101.991 36.0514 101.023C36.3968 100.056 36.8626 99.177 37.4514 98.3869C38.0403 97.5968 38.8777 96.8093 39.9637 96.0192C41.0498 95.2291 42.1881 94.5798 43.3762 94.0714C44.5643 93.5629 45.9513 93.0596 47.5372 92.5616C49.1231 92.0635 51.6641 91.396 55.1656 90.5563C56.2909 90.3034 57.2487 90.04 58.0417 89.7741C58.8346 89.5055 59.5386 89.2447 60.151 88.9918C60.7633 88.7388 61.2998 88.439 61.7604 88.0948C62.221 87.7506 62.6423 87.3307 63.027 86.8353C63.4117 86.3399 63.6917 85.8366 63.8696 85.3255C64.0476 84.817 64.1392 84.3085 64.1392 83.7975C64.1392 82.551 63.7309 81.4819 62.9118 80.5901C62.0927 79.6983 61.0276 79.0751 59.7113 78.7179C58.395 78.3606 56.8431 78.1833 55.0531 78.1833C53.3913 78.1833 51.6851 78.3163 49.9343 78.5849C48.1836 78.8535 46.6736 79.1716 45.4096 79.5393C44.1456 79.9096 42.565 80.4624 40.6755 81.2003L40.6729 81.1925Z" fill="white"/>
    <path d="M79.1211 131C79.6341 124.429 80.1156 115.492 80.5657 104.186C81.0158 92.8794 81.267 83.6355 81.3168 76.4542C85.5065 75.5624 88.8588 74.9574 91.3764 74.6393C93.8939 74.3212 96.4166 74.1621 98.9446 74.1621C102.93 74.1621 106.392 74.7931 109.329 76.0526C112.268 77.3121 114.552 79.5285 116.188 82.6993C117.823 85.8702 118.64 89.4556 118.64 93.453C118.64 96.2301 118.255 98.9081 117.488 101.492C116.722 104.076 115.552 106.389 113.979 108.426C112.406 110.462 110.506 111.998 108.282 113.028C106.058 114.061 103.577 114.575 100.839 114.575C99.2037 114.575 97.6309 114.376 96.1209 113.983C94.6109 113.589 93.2998 113.073 92.1876 112.436C91.0754 111.8 90.1412 111.088 89.3875 110.298C88.6338 109.508 87.7178 108.324 86.6449 106.747L86.1765 121.873C86.0718 124.343 86.0194 126.126 86.0194 127.221V131.002C84.7214 130.95 83.5909 130.927 82.6226 130.927C81.7329 130.927 80.5631 130.953 79.1133 131.002L79.1211 131ZM87.8984 80.9992L87.6289 83.9015L87.4378 87.8728C87.3358 89.9615 87.2599 91.6616 87.2075 92.9732C87.1552 94.2849 87.1317 95.208 87.1317 95.7425C87.1317 97.6278 87.3305 99.4088 87.7257 101.091C88.1209 102.773 88.9138 104.306 90.1019 105.693C91.29 107.08 92.6901 108.131 94.2995 108.843C95.9089 109.558 97.5707 109.912 99.2822 109.912C101.685 109.912 103.862 109.25 105.819 107.925C107.774 106.601 109.3 104.627 110.399 102.003C111.498 99.3801 112.048 96.517 112.048 93.4087C112.048 90.3005 111.472 87.5782 110.323 85.3122C109.174 83.0462 107.628 81.4112 105.686 80.4047C103.744 79.3981 101.546 78.8949 99.0912 78.8949C95.5897 78.8949 91.8579 79.5963 87.8984 80.9966V80.9992Z" fill="white"/>
    <path d="M126.349 113.735L127.014 104.11L127.757 87.685L128.069 75.0408L131.599 75.0799L135.051 75.0408C134.763 79.0122 134.504 83.1713 134.268 87.5129C134.033 91.8545 133.844 96.5978 133.7 101.743C133.556 106.887 133.486 110.885 133.486 113.737C131.874 113.688 130.722 113.662 130.031 113.662C129.393 113.662 128.163 113.688 126.347 113.737L126.349 113.735ZM128.113 66.7148C128.189 64.321 128.228 62.514 128.228 61.291C129.634 61.3432 130.874 61.3666 131.947 61.3666C133.3 61.3666 134.527 61.3406 135.626 61.291C135.574 62.0811 135.498 63.8882 135.396 66.7148C134.017 66.6887 132.829 66.6757 131.832 66.6757C130.835 66.6757 129.594 66.6887 128.113 66.7148Z" fill="white"/>
    <path d="M163.419 108.694C163.136 109.943 162.83 111.596 162.498 113.659C160.76 114.066 159.378 114.321 158.358 114.423C157.334 114.525 156.363 114.577 155.445 114.577C153.171 114.577 151.336 114.29 149.944 113.716C148.552 113.143 147.484 112.228 146.744 110.965C146.003 109.706 145.631 107.993 145.631 105.828C145.631 105.549 145.644 105.051 145.671 104.34C145.697 103.628 145.828 101.145 146.06 96.8923L146.997 79.7813H141.876C141.978 78.7122 142.067 77.1841 142.146 75.1972H147.372C147.5 73.7708 147.628 71.3405 147.759 67.9011C150.156 67.4422 152.182 67.0093 153.838 66.6025C153.66 70.3705 153.561 73.2362 153.535 75.1972H164.188C164.06 76.8008 163.984 78.3289 163.958 79.7813H153.346L152.323 101.286L152.286 102.929C152.286 104.788 152.496 106.183 152.917 107.111C153.338 108.042 153.969 108.71 154.812 109.117C155.654 109.523 156.534 109.727 157.452 109.727C158.091 109.727 158.779 109.677 159.52 109.573C160.26 109.471 161.561 109.179 163.424 108.694H163.419Z" fill="white"/>
    <path d="M171.508 81.1925C171.738 80.0712 171.982 78.418 172.235 76.2276C175.302 75.4375 177.967 74.8978 180.228 74.6031C182.489 74.3111 184.695 74.165 186.841 74.165C189.141 74.165 191.292 74.3762 193.299 74.7961C195.307 75.2159 196.974 75.8991 198.303 76.8404C199.632 77.7818 200.514 78.8639 200.949 80.0869C201.383 81.3098 201.6 82.6214 201.6 84.0217C201.6 85.7792 201.467 88.7258 201.2 92.864C200.933 97.0023 200.731 100.828 200.59 104.343C200.449 107.858 200.381 110.989 200.381 113.74C198.999 113.691 197.874 113.665 197.005 113.665C196.186 113.665 195.021 113.691 193.511 113.74L194.325 103.313L194.906 90.9762C194.011 91.6646 193.339 92.147 192.891 92.4286C192.444 92.7102 191.938 92.971 191.376 93.2109C190.813 93.4534 190.193 93.6828 189.515 93.8993C188.837 94.1157 187.521 94.4912 185.564 95.0257C183.609 95.5603 182.219 95.9671 181.403 96.2487C179.639 96.8093 178.244 97.37 177.221 97.9306C176.197 98.4912 175.342 99.1014 174.651 99.7637C173.96 100.426 173.473 101.088 173.193 101.751C172.861 102.567 172.693 103.42 172.693 104.309C172.693 105.683 173.102 106.882 173.921 107.899C174.737 108.919 175.766 109.626 177.006 110.019C178.247 110.416 179.733 110.611 181.473 110.611C182.546 110.611 183.672 110.538 184.847 110.39C186.022 110.241 187.594 109.858 189.562 109.237C189.204 110.223 188.796 111.738 188.335 113.782C186.469 114.139 184.949 114.361 183.774 114.45C182.599 114.538 181.486 114.583 180.44 114.583C176.938 114.583 174.203 114.176 172.235 113.36C170.267 112.546 168.797 111.305 167.826 109.636C166.855 107.97 166.368 106.155 166.368 104.194C166.368 103.049 166.541 101.991 166.886 101.023C167.232 100.056 167.698 99.177 168.286 98.3869C168.875 97.5968 169.713 96.8093 170.799 96.0192C171.885 95.2291 173.023 94.5798 174.211 94.0714C175.399 93.5629 176.786 93.0596 178.372 92.5616C179.958 92.0635 182.499 91.396 186.003 90.5563C187.129 90.3034 188.086 90.04 188.879 89.7741C189.672 89.5055 190.374 89.2447 190.989 88.9918C191.601 88.7388 192.137 88.439 192.598 88.0948C193.059 87.7506 193.48 87.3307 193.865 86.8353C194.249 86.3399 194.529 85.8366 194.707 85.3255C194.885 84.817 194.977 84.3085 194.977 83.7975C194.977 82.551 194.569 81.4819 193.749 80.5901C192.93 79.6983 191.865 79.0751 190.549 78.7179C189.233 78.3606 187.681 78.1833 185.891 78.1833C184.229 78.1833 182.523 78.3163 180.772 78.5849C179.021 78.8535 177.511 79.1716 176.247 79.5393C174.983 79.9096 173.405 80.4624 171.513 81.2003L171.508 81.1925Z" fill="white"/>
    <path d="M210.802 113.735C211.312 105.892 211.809 96.5983 212.293 85.8525C212.626 78.0349 212.867 69.9488 213.021 61.5967L216.588 61.6358C217.328 61.6358 218.467 61.6228 220.003 61.5967L218.818 84.0193L217.977 106.708L217.826 113.735C216.316 113.686 215.19 113.66 214.45 113.66C214.144 113.66 212.927 113.686 210.804 113.735H210.802Z" fill="white"/>
  </g>
  <defs>
    <clipPath id="clip0_29_1145">
      <rect width="220" height="131" fill="white"/>
    </clipPath>
  </defs>
</svg>