<svg width="24" height="25" viewBox="0 0 24 25" fill="none" xmlns="http://www.w3.org/2000/svg">
<g id="&#240;&#159;&#145;&#145; Icon L">
<path id="&#240;&#159;&#140;&#136; Edit Color" fill-rule="evenodd" clip-rule="evenodd" d="M16.2413 4.43066H7.7587H7.75859C6.95367 4.43065 6.28935 4.43065 5.74817 4.47485C5.18608 4.52078 4.66937 4.61934 4.18404 4.86663C3.43139 5.25013 2.81947 5.86205 2.43597 6.6147C2.18868 7.10003 2.09012 7.61674 2.04419 8.17884C1.99998 8.72001 1.99999 9.38434 2 10.1893V10.1894V14.672V14.6721C1.99999 15.477 1.99998 16.1413 2.04419 16.6825C2.09012 17.2446 2.18868 17.7613 2.43597 18.2467C2.81947 18.9993 3.43139 19.6112 4.18404 19.9947C4.66937 20.242 5.18608 20.3406 5.74817 20.3865C6.28938 20.4307 6.95374 20.4307 7.75872 20.4307H16.2413C17.0463 20.4307 17.7106 20.4307 18.2518 20.3865C18.8139 20.3406 19.3306 20.242 19.816 19.9947C20.5686 19.6112 21.1805 18.9993 21.564 18.2467C21.8113 17.7613 21.9099 17.2446 21.9558 16.6825C22 16.1413 22 15.477 22 14.6721V14.672V10.1893V10.1892C22 9.38433 22 8.72 21.9558 8.17883C21.9099 7.61674 21.8113 7.10003 21.564 6.6147C21.1805 5.86205 20.5686 5.25013 19.816 4.86663C19.3306 4.61934 18.8139 4.52078 18.2518 4.47485C17.7106 4.43065 17.0464 4.43065 16.2414 4.43066H16.2413ZM7.56578 8.60604C7.11036 8.29362 6.4879 8.40955 6.17548 8.86497C5.86305 9.3204 5.97898 9.94286 6.43441 10.2553L10.303 12.9092C11.3257 13.6107 12.6745 13.6107 13.6972 12.9092L17.5658 10.2553C18.0212 9.94286 18.1371 9.3204 17.8247 8.86497C17.5123 8.40955 16.8898 8.29362 16.4344 8.60604L12.5658 11.26C12.2249 11.4938 11.7753 11.4938 11.4344 11.26L7.56578 8.60604Z" fill="black" fill-opacity="0.2"/>
</g>
</svg>
