<svg xmlns="http://www.w3.org/2000/svg" width="33" height="40" viewBox="0 0 33 40" fill="none">
  <path d="M16.9021 39.8126C16.6961 39.814 16.4926 39.7673 16.3078 39.6764L10.2775 36.6674C7.42057 35.2468 5.01881 33.0542 3.34454 30.3381C1.67026 27.6221 0.790452 24.4913 0.804862 21.3007V6.26829C0.804801 5.92115 0.940987 5.58784 1.18413 5.34007C1.42727 5.0923 1.75794 4.94985 2.10503 4.94336H6.40176C8.15943 4.93408 9.87787 4.42285 11.3548 3.46984L16.1468 0.398972C16.3595 0.263417 16.6066 0.191406 16.8588 0.191406C17.1111 0.191406 17.3581 0.263417 17.5708 0.398972L22.3628 3.46984C23.8398 4.42285 25.5582 4.93408 27.3159 4.94336H31.6126C31.7917 4.93498 31.9707 4.96305 32.1386 5.02587C32.3066 5.0887 32.4601 5.18496 32.5897 5.30884C32.7194 5.43271 32.8226 5.58162 32.893 5.74654C32.9634 5.91146 32.9996 6.08896 32.9994 6.26829V21.3007C33.0092 24.4918 32.1246 27.6218 30.446 30.3357C28.7673 33.0496 26.3617 35.2388 23.502 36.655L17.4717 39.664C17.2954 39.7556 17.1008 39.8064 16.9021 39.8126ZM3.42996 7.61799V21.3007C3.42241 24.0003 4.17126 26.6481 5.59163 28.9439C7.012 31.2397 9.04709 33.0917 11.4662 34.29L16.9021 37.0141L22.3381 34.29C24.7572 33.0917 26.7923 31.2397 28.2127 28.9439C29.633 26.6481 30.3819 24.0003 30.3743 21.3007V7.61799H27.4025C25.1227 7.61782 22.8913 6.96002 20.976 5.72346L16.9021 3.0736L12.8283 5.69869C10.9156 6.94398 8.68407 7.61045 6.40176 7.61799H3.42996Z" fill="white"/>
  <path d="M16.9026 20.9917C15.7271 20.9917 14.5779 20.6431 13.6005 19.99C12.6231 19.3369 11.8613 18.4087 11.4114 17.3226C10.9616 16.2366 10.8439 15.0415 11.0732 13.8886C11.3025 12.7356 11.8686 11.6766 12.6998 10.8453C13.5311 10.0141 14.5901 9.44804 15.7431 9.2187C16.896 8.98936 18.0911 9.10707 19.1771 9.55693C20.2632 10.0068 21.1914 10.7686 21.8445 11.746C22.4976 12.7234 22.8462 13.8726 22.8462 15.0481C22.8429 16.6234 22.2157 18.1333 21.1018 19.2473C19.9878 20.3612 18.4779 20.9884 16.9026 20.9917ZM16.9026 11.742C16.2487 11.742 15.6095 11.9359 15.0658 12.2992C14.5221 12.6624 14.0984 13.1788 13.8481 13.7829C13.5979 14.387 13.5324 15.0518 13.66 15.6931C13.7876 16.3344 14.1024 16.9235 14.5648 17.3859C15.0272 17.8483 15.6163 18.1631 16.2576 18.2907C16.8989 18.4183 17.5637 18.3528 18.1678 18.1026C18.7719 17.8523 19.2883 17.4286 19.6516 16.8849C20.0148 16.3412 20.2087 15.702 20.2087 15.0481C20.2055 14.1734 19.8557 13.3357 19.236 12.7183C18.6164 12.101 17.7773 11.7543 16.9026 11.7544V11.742Z" fill="white"/>
  <path d="M24.8272 28.2603H22.1897C22.1864 27.5618 21.9075 26.8928 21.4136 26.3989C20.9197 25.905 20.2507 25.6261 19.5522 25.6228H14.2525C13.553 25.6228 12.8821 25.9007 12.3875 26.3953C11.8929 26.89 11.615 27.5608 11.615 28.2603H8.97754C8.97754 26.8613 9.53329 25.5196 10.5225 24.5303C11.5118 23.5411 12.8535 22.9854 14.2525 22.9854H19.5398C20.94 22.9853 22.283 23.5407 23.2742 24.5296C24.2654 25.5185 24.8239 26.8602 24.8272 28.2603Z" fill="white"/>
</svg>