<svg xmlns="http://www.w3.org/2000/svg" width="70" height="71" viewBox="0 0 70 71" fill="none">
  <rect x="1" y="1" width="68" height="68" rx="34" fill="#F7F7FA" stroke="black" stroke-opacity="0.1" stroke-linecap="round" stroke-linejoin="round"/>
  <path d="M33.3475 50.9997H38.6476C39.3795 50.9997 39.9727 50.4065 39.9727 49.6746C39.9727 48.9428 39.3795 48.3496 38.6476 48.3496H33.3475C32.6157 48.3496 32.0225 48.9428 32.0225 49.6746C32.0225 50.4065 32.6157 50.9997 33.3475 50.9997Z" fill="#414141"/>
  <path d="M35.9976 17.0791C35.2658 17.0791 34.6725 17.6723 34.6725 18.4041V19.8242C30.1837 20.4691 26.7223 24.3399 26.7223 29.0044V37.1505C26.7223 37.6174 26.512 38.0422 26.199 38.2076C24.8872 38.9002 24.0723 40.2479 24.0723 41.7248C24.0723 43.9166 25.8555 45.6999 28.0474 45.6999H43.9478C46.1397 45.6999 47.9229 43.9166 47.9229 41.7248C47.9229 40.2479 47.108 38.9002 45.7961 38.2076C45.4831 38.0423 45.2728 37.6175 45.2728 37.1505V29.0044C45.2728 24.3399 41.8115 20.4691 37.3226 19.8242V18.4041C37.3226 17.6723 36.7294 17.0791 35.9976 17.0791ZM42.6228 29.0044V37.1505C42.6228 38.6174 43.3646 39.9204 44.5588 40.551C44.9992 40.7835 45.2728 41.2333 45.2728 41.7248C45.2728 42.4554 44.6784 43.0498 43.9478 43.0498H28.0474C27.3167 43.0498 26.7223 42.4554 26.7223 41.7248C26.7223 41.2333 26.996 40.7835 27.4364 40.551C28.6306 39.9204 29.3724 38.6174 29.3724 37.1505V29.0044C29.3724 25.3513 32.3445 22.3792 35.9976 22.3792C39.6507 22.3792 42.6228 25.3513 42.6228 29.0044Z" fill="#414141"/>
</svg>