<svg xmlns="http://www.w3.org/2000/svg" width="37" height="36" viewBox="0 0 37 36" fill="none">
<path fill-rule="evenodd" clip-rule="evenodd" d="M31.6228 25.69C33.6631 25.4634 35.3333 27.289 34.9263 29.3011L34.9138 29.3623L33.8765 32.8325C33.5645 34.2088 32.3402 35.1911 30.9226 35.1911H5.5896C4.17214 35.1911 2.94777 34.2088 2.63568 32.8327L1.59832 29.3623L1.58593 29.3011C1.17895 27.289 2.84908 25.4634 4.8894 25.69L12.5223 26.5381C14.276 26.733 16.034 27.1548 17.3765 28.1274C17.7021 28.3634 17.9962 28.6264 18.2561 28.9167C18.5161 28.6264 18.81 28.3634 19.1358 28.1274C20.4783 27.1548 22.2361 26.733 23.9899 26.5381L31.6228 25.69ZM16.8665 32.4411C16.7842 31.4025 16.3629 30.7889 15.7632 30.3545C15.0005 29.802 13.8155 29.4487 12.2186 29.2712L4.58572 28.4231C4.41014 28.4037 4.26432 28.5491 4.27638 28.7194L5.30366 32.156L5.31605 32.2172C5.34238 32.3474 5.45679 32.4411 5.5896 32.4411H16.8665ZM19.6458 32.4411H30.9226C31.0554 32.4411 31.1698 32.3474 31.1962 32.2172L31.2086 32.156L32.2359 28.7194C32.248 28.5491 32.102 28.4037 31.9266 28.4231L24.2937 29.2712C22.6967 29.4487 21.5118 29.802 20.7491 30.3545C20.1494 30.7889 19.7279 31.4025 19.6458 32.4411Z" fill="#4922AA"/>
<path fill-rule="evenodd" clip-rule="evenodd" d="M0 33.8154C0 33.0561 0.615597 32.4404 1.375 32.4404H35.1433C35.9027 32.4404 36.5183 33.0561 36.5183 33.8154C36.5183 34.5748 35.9027 35.1904 35.1433 35.1904H1.375C0.615597 35.1904 0 34.5748 0 33.8154Z" fill="#4922AA"/>
<path fill-rule="evenodd" clip-rule="evenodd" d="M18.259 2.75C15.2764 2.75 12.8584 5.16793 12.8584 8.15062C12.8584 11.1333 15.2764 13.5512 18.259 13.5512C21.2417 13.5512 23.6597 11.1333 23.6597 8.15062C23.6597 5.16793 21.2417 2.75 18.259 2.75ZM10.1084 8.15062C10.1084 3.64916 13.7576 0 18.259 0C22.7604 0 26.4097 3.64916 26.4097 8.15062C26.4097 12.6521 22.7604 16.3013 18.259 16.3013C13.7576 16.3013 10.1084 12.6521 10.1084 8.15062Z" fill="#4922AA"/>
<path fill-rule="evenodd" clip-rule="evenodd" d="M22.5999 21.1572H13.9138C11.5193 21.1572 9.57812 23.0984 9.57812 25.4929C9.57812 26.031 9.67551 26.543 9.85241 27.0149L7.27749 27.9803C6.98658 27.2047 6.82812 26.3655 6.82812 25.4929C6.82812 21.5794 10.0005 18.4072 13.9138 18.4072H22.5999C26.5133 18.4072 29.6855 21.5794 29.6855 25.4929C29.6855 26.3655 29.5271 27.2047 29.2362 27.9803L26.6613 27.0149C26.8382 26.543 26.9355 26.031 26.9355 25.4929C26.9355 23.0984 24.9944 21.1572 22.5999 21.1572Z" fill="#4922AA"/>
</svg>