<svg xmlns="http://www.w3.org/2000/svg" width="23" height="22" viewBox="0 0 23 22" fill="none">
  <g clip-path="url(#clip0_32_1351)">
    <path d="M14.7525 -0.000289063C14.7278 -0.00120573 9.19476 -0.00120573 9.17001 -0.000289063C6.66201 0.0217109 4.62793 2.06954 4.62793 4.58213V17.4155C4.62793 19.9427 6.68401 21.9988 9.21126 21.9988H14.7113C17.2385 21.9988 19.2946 19.9427 19.2946 17.4155V4.58304C19.2946 2.06954 17.2605 0.0226276 14.7525 -0.000289063ZM17.4613 17.4155C17.4613 18.9316 16.2274 20.1655 14.7113 20.1655H9.21126C7.6951 20.1655 6.46126 18.9316 6.46126 17.4155V4.58304C6.46126 3.25113 7.41276 2.13829 8.67135 1.88621L9.30751 3.15946C9.46243 3.47021 9.78051 3.66638 10.1279 3.66638H13.7946C14.142 3.66638 14.4592 3.47021 14.615 3.15946L15.2512 1.88621C16.5098 2.13738 17.4613 3.25113 17.4613 4.58304V17.4155ZM12.8779 18.3321H11.0446C10.5386 18.3321 10.1279 17.9215 10.1279 17.4155C10.1279 16.9095 10.5386 16.4988 11.0446 16.4988H12.8779C13.3839 16.4988 13.7946 16.9095 13.7946 17.4155C13.7946 17.9215 13.3839 18.3321 12.8779 18.3321Z" fill="#CCCCCC"/>
  </g>
  <defs>
    <clipPath id="clip0_32_1351">
      <rect width="22" height="22" fill="white" transform="translate(0.960938)"/>
    </clipPath>
  </defs>
</svg>