<svg xmlns="http://www.w3.org/2000/svg" width="37" height="37" viewBox="0 0 37 37" fill="none">
  <path d="M35.7322 20.9261C34.0415 19.2355 31.2904 19.2355 29.6008 20.925L21.6653 28.8422C21.4968 29.0105 21.3726 29.2177 21.3034 29.4455L19.5751 35.1344C19.4219 35.6388 19.5557 36.1865 19.9235 36.5639C20.1993 36.8464 20.5739 37 20.9584 37C21.0869 37 21.2167 36.9828 21.3441 36.9472L27.1781 35.3314C27.4181 35.2648 27.6369 35.1375 27.8133 34.9616L35.7322 27.0582C37.4226 25.3673 37.4226 22.6167 35.7322 20.9261ZM26.0402 32.6472L23.1051 33.4601L23.9641 30.6325L29.3183 25.2902L31.363 27.3345L26.0402 32.6472ZM33.6889 25.013L33.4088 25.2925L31.3647 23.2485L31.6439 22.9698C32.2073 22.4064 33.1243 22.4064 33.688 22.9698C34.2515 23.5336 34.2515 24.4504 33.6889 25.013ZM16.5497 35.5544C16.5497 36.3527 15.9027 36.9997 15.1043 36.9997H5.78156C2.5938 36.9997 0 34.4064 0 31.2185V5.78121C0 2.59336 2.5938 0 5.78156 0H23.5519C26.74 0 29.3335 2.59336 29.3335 5.78121V16.91C29.3335 17.7083 28.6865 18.3553 27.8881 18.3553C27.0898 18.3553 26.4427 17.7083 26.4427 16.91V5.78121C26.4427 4.18742 25.1458 2.8906 23.5519 2.8906H5.78156C4.18768 2.8906 2.89078 4.18742 2.89078 5.78121V31.2185C2.89078 32.8123 4.18768 34.1091 5.78156 34.1091H15.1043C15.9027 34.1091 16.5497 34.7561 16.5497 35.5544ZM23.5599 10.7675C23.5599 11.5658 22.9128 12.2128 22.1145 12.2128H17.8506C17.0522 12.2128 16.4052 11.5658 16.4052 10.7675C16.4052 9.96919 17.0522 9.32219 17.8506 9.32219H22.1145C22.9128 9.32219 23.5599 9.96919 23.5599 10.7675ZM14.8457 7.78571L11.4722 11.8684C11.0324 12.4107 10.3814 12.7477 9.68439 12.7943C9.62906 12.798 9.57345 12.8 9.51812 12.8C8.87503 12.8 8.24945 12.5518 7.78111 12.1058C7.76784 12.0934 7.75485 12.0804 7.74187 12.0671L6.19146 10.475C5.63448 9.90314 5.6469 8.98825 6.21856 8.4313C6.79051 7.87435 7.70545 7.88649 8.26243 8.4584L9.49469 9.7236L12.617 5.94465C13.1254 5.32927 14.0367 5.24261 14.6518 5.751C15.2672 6.2594 15.3539 7.17033 14.8457 7.78571ZM22.1145 21.1014H17.8506C17.0522 21.1014 16.4052 20.4544 16.4052 19.6561C16.4052 18.8578 17.0522 18.2108 17.8506 18.2108H22.1145C22.9128 18.2108 23.5599 18.8578 23.5599 19.6561C23.5599 20.4544 22.9128 21.1014 22.1145 21.1014ZM14.8457 16.6653L11.4722 20.7483C11.0324 21.2903 10.3814 21.6276 9.68439 21.6739C9.62906 21.6775 9.57345 21.6795 9.51812 21.6795C8.87475 21.6795 8.24945 21.4314 7.78083 20.9854C7.76869 20.9738 7.75655 20.962 7.74469 20.9498L6.19429 19.3665C5.63589 18.7963 5.64549 17.8811 6.21574 17.3227C6.78599 16.7641 7.70122 16.7737 8.25961 17.3442L9.49384 18.6043L12.617 14.8242C13.1254 14.2088 14.0367 14.1225 14.6518 14.6306C15.2672 15.139 15.3539 16.0499 14.8457 16.6653ZM14.8457 25.4094L11.4722 29.4923C11.0324 30.0343 10.3814 30.3717 9.68439 30.4179C9.62906 30.4216 9.57345 30.4236 9.51812 30.4236C8.87475 30.4236 8.24945 30.1755 7.78083 29.7295C7.76869 29.7179 7.75655 29.706 7.74469 29.6939L6.19429 28.1105C5.63589 27.5403 5.64549 26.6252 6.21574 26.0668C6.78599 25.5082 7.70122 25.5178 8.25961 26.0883L9.49384 27.3484L12.617 23.5683C13.1254 22.9529 14.0367 22.8665 14.6518 23.3746C15.2672 23.883 15.3539 24.794 14.8457 25.4094Z" fill="white"/>
</svg>