<svg xmlns="http://www.w3.org/2000/svg" width="33" height="33" viewBox="0 0 33 33" fill="none">
  <g clip-path="url(#clip0_158_643)">
    <path d="M17.7891 24.1055C17.7891 24.8174 17.2119 25.3945 16.5 25.3945H8.89453C8.18258 25.3945 7.60547 24.8174 7.60547 24.1055C7.60547 23.3935 8.18258 22.8164 8.89453 22.8164H16.5C17.2119 22.8164 17.7891 23.3935 17.7891 24.1055ZM33 7.74404V22.8379C33 24.8171 32.2293 26.6777 30.8297 28.0772L28.0772 30.8298C26.6777 32.2293 24.8171 33 22.8379 33H7.74404C3.46365 33 0 29.536 0 25.256V7.74404C0 3.46365 3.46403 0 7.74404 0H25.256C29.5364 0 33 3.46403 33 7.74404ZM30.2489 24.1269H26.7051C25.2835 24.1269 24.1269 25.2835 24.1269 26.7051V30.2489C24.9237 30.0298 25.654 29.6069 26.2541 29.0068L29.0067 26.2541C29.6069 25.654 30.0298 24.9237 30.2489 24.1269ZM30.4219 7.74404C30.4219 4.88871 28.1112 2.57812 25.256 2.57812H7.74404C4.88871 2.57812 2.57812 4.88883 2.57812 7.74404V25.256C2.57812 28.1113 4.88883 30.4219 7.74404 30.4219H21.5488V26.7051C21.5488 23.8619 23.8619 21.5488 26.7051 21.5488H30.4219V7.74404ZM24.1055 15.2109H8.89453C8.18258 15.2109 7.60547 15.7881 7.60547 16.5C7.60547 17.2119 8.18258 17.7891 8.89453 17.7891H24.1055C24.8174 17.7891 25.3945 17.2119 25.3945 16.5C25.3945 15.7881 24.8174 15.2109 24.1055 15.2109ZM24.1055 7.60547H8.89453C8.18258 7.60547 7.60547 8.18258 7.60547 8.89453C7.60547 9.60648 8.18258 10.1836 8.89453 10.1836H24.1055C24.8174 10.1836 25.3945 9.60648 25.3945 8.89453C25.3945 8.18258 24.8174 7.60547 24.1055 7.60547Z" fill="white"/>
  </g>
  <defs>
    <clipPath id="clip0_158_643">
      <rect width="33" height="33" fill="white"/>
    </clipPath>
  </defs>
</svg>