<svg xmlns="http://www.w3.org/2000/svg" width="33" height="28" viewBox="0 0 33 28" fill="none">
  <path d="M32.8855 19.8445C33.1761 20.484 32.8944 21.238 32.256 21.528L18.2949 27.8856C18.1287 27.9619 17.9497 28 17.7695 28C17.6438 28 17.5182 27.9809 17.3963 27.9441L0.896916 22.858C0.226785 22.6507 -0.148894 21.9387 0.0567138 21.2686C0.262322 20.5972 0.974336 20.217 1.6432 20.4268L17.6832 25.3718L31.2051 19.2138C31.8498 18.9175 32.5974 19.2074 32.8855 19.8445ZM17.6832 20.2857L1.6432 15.3407C0.974336 15.1309 0.263591 15.5111 0.0567138 16.1825C-0.150164 16.8526 0.226785 17.5646 0.896916 17.7719L17.3963 22.858C17.5182 22.8948 17.6438 22.9139 17.7695 22.9139C17.9497 22.9139 18.1287 22.8758 18.2949 22.7995L32.256 16.4419C32.8944 16.1507 33.1761 15.3979 32.8855 14.7584C32.5961 14.1213 31.8498 13.8352 31.2051 14.1277L17.6832 20.2857ZM0.0021388 11.5338C-0.0245141 10.9998 0.285167 10.5064 0.776343 10.2979L10.0427 6.3854C11.8665 5.61486 12.7346 4.65359 12.7346 1.27134C12.7346 0.880983 12.9136 0.51097 13.2207 0.270652C13.5279 0.029063 13.9277 -0.056129 14.3071 0.0366921L30.7292 4.0903C31.2952 4.23017 31.695 4.74005 31.695 5.32495V5.51822C31.6963 9.27938 31.6975 11.7627 27.0993 13.7043C24.0215 15.0038 18.3673 17.6778 18.3114 17.7058C18.1414 17.7871 17.9548 17.8278 17.7695 17.8278C17.6438 17.8278 17.5182 17.8088 17.3963 17.7719L0.896916 12.6858C0.386702 12.5281 0.0287917 12.0678 0.0021388 11.5338ZM4.97989 11.2833L17.6718 15.197C19.0831 14.532 23.4618 12.4811 26.1119 11.3621C28.918 10.1771 29.1389 9.2654 29.1541 6.32182L15.2057 2.87727C14.9608 5.48643 13.9733 7.48527 11.0301 8.72881L4.97989 11.2833Z" fill="white"/>
</svg>