<svg xmlns="http://www.w3.org/2000/svg" width="40" height="40" viewBox="0 0 40 40" fill="none">
  <path d="M6.66732 22.4997C7.13398 22.4997 7.50065 22.133 7.50065 21.6663V9.99967C7.50065 8.61634 8.61732 7.49967 10.0007 7.49967H30.0007C31.384 7.49967 32.5007 8.61634 32.5007 9.99967V21.6663C32.5007 22.133 32.8673 22.4997 33.334 22.4997C33.8006 22.4997 34.1673 22.133 34.1673 21.6663V9.99967C34.1673 7.69967 32.3006 5.83301 30.0007 5.83301H10.0007C7.70065 5.83301 5.83398 7.69967 5.83398 9.99967V21.6663C5.83398 22.133 6.20065 22.4997 6.66732 22.4997Z" fill="white"/>
  <path d="M30 22.917H26.6667C25.2833 22.917 24.1667 24.0337 24.1667 25.417C24.1667 24.0337 23.05 22.917 21.6667 22.917H18.3333C16.95 22.917 15.8333 24.0337 15.8333 25.417C15.8333 24.0337 14.7167 22.917 13.3333 22.917H10C8.61667 22.917 7.5 24.0337 7.5 25.417V27.0837C7.5 27.5503 7.86667 27.917 8.33333 27.917H31.6667C32.1333 27.917 32.5 27.5503 32.5 27.0837V25.417C32.5 24.0337 31.3833 22.917 30 22.917Z" fill="white"/>
  <path d="M34.1673 29.167H30.834C29.4507 29.167 28.334 30.2837 28.334 31.667C28.334 30.2837 27.2173 29.167 25.834 29.167H22.5007C21.1173 29.167 20.0007 30.2837 20.0007 31.667C20.0007 30.2837 18.884 29.167 17.5007 29.167H14.1673C12.784 29.167 11.6673 30.2837 11.6673 31.667C11.6673 30.2837 10.5507 29.167 9.16732 29.167H5.83398C4.45065 29.167 3.33398 30.2837 3.33398 31.667V33.3337C3.33398 33.8003 3.70065 34.167 4.16732 34.167H35.834C36.3007 34.167 36.6673 33.8003 36.6673 33.3337V31.667C36.6673 30.2837 35.5507 29.167 34.1673 29.167Z" fill="white"/>
</svg>