<svg xmlns="http://www.w3.org/2000/svg" width="36" height="36" viewBox="0 0 36 36" fill="none">
  <g clip-path="url(#clip0_158_656)">
    <path d="M24.3984 21.2344C24.98 21.2344 25.4531 21.7012 25.4531 22.275H27.5625C27.5625 20.9062 26.6807 19.739 25.4531 19.3056V17.0156H23.3438V19.3064C22.1162 19.7418 21.2344 20.9141 21.2344 22.2891C21.2344 24.0337 22.6538 25.4531 24.3984 25.4531C24.98 25.4531 25.4531 25.9263 25.4531 26.5078C25.4531 27.0894 24.98 27.5625 24.3984 27.5625C23.8169 27.5625 23.3438 27.0894 23.3438 26.5078H21.2344C21.2344 27.8828 22.1162 29.0551 23.3438 29.4905V31.7672H25.4531V29.4905C26.6807 29.0551 27.5625 27.8828 27.5625 26.5078C27.5625 24.7631 26.1431 23.3438 24.3984 23.3438C23.8169 23.3438 23.3438 22.8706 23.3438 22.2891C23.3438 21.7075 23.8169 21.2344 24.3984 21.2344Z" fill="white"/>
    <path d="M24.3984 12.7969C24.0429 12.7969 23.6912 12.8139 23.3438 12.8453V6.32812C23.3438 4.49923 22.0396 2.83992 19.6716 1.65593C17.5359 0.588094 14.7199 0 11.7422 0C8.75841 0 5.91982 0.586899 3.74927 1.65248C1.33158 2.83957 0 4.5 0 6.32812V25.4531C0 27.2812 1.33158 28.9417 3.74927 30.1288C5.91982 31.1944 8.75841 31.7812 11.7422 31.7812C12.9381 31.7812 14.108 31.6858 15.2307 31.4997C17.355 34.2358 20.6743 36 24.3984 36C30.7955 36 36 30.7955 36 24.3984C36 18.0013 30.7955 12.7969 24.3984 12.7969ZM4.67895 3.546C6.5385 2.63299 9.11292 2.10938 11.7422 2.10938C17.3361 2.10938 21.2344 4.33273 21.2344 6.32812C21.2344 8.32352 17.3361 10.5469 11.7422 10.5469C9.11292 10.5469 6.5385 10.0233 4.67895 9.11025C3.04594 8.30855 2.10938 7.2945 2.10938 6.32812C2.10938 5.36175 3.04594 4.3477 4.67895 3.546ZM2.10938 10.003C2.58216 10.3642 3.12975 10.6996 3.74927 11.0038C5.91982 12.0694 8.75841 12.6562 11.7422 12.6562C14.7199 12.6562 17.5359 12.0682 19.6716 11.0003C20.2593 10.7064 20.7814 10.3833 21.2344 10.0355V13.2354C19.1323 13.832 17.2716 15.0079 15.8359 16.5786C14.5509 16.8685 13.1756 17.0156 11.7422 17.0156C9.11292 17.0156 6.5385 16.492 4.67895 15.579C3.04594 14.7773 2.10938 13.7633 2.10938 12.7969V10.003ZM2.10938 16.4718C2.58216 16.833 3.12975 17.1683 3.74927 17.4725C5.91982 18.5381 8.75841 19.125 11.7422 19.125C12.5565 19.125 13.3553 19.0813 14.1343 18.9957C13.4413 20.307 12.9923 21.7661 12.8481 23.3125C12.4817 23.3326 12.1122 23.3438 11.7422 23.3438C9.11292 23.3438 6.5385 22.8201 4.67895 21.9071C3.04594 21.1054 2.10938 20.0914 2.10938 19.125V16.4718ZM11.7422 29.6719C9.11292 29.6719 6.5385 29.1483 4.67895 28.2352C3.04594 27.4335 2.10938 26.4195 2.10938 25.4531V22.7998C2.58216 23.161 3.12975 23.4964 3.74927 23.8006C5.91982 24.8662 8.75841 25.4531 11.7422 25.4531C12.1099 25.4531 12.4776 25.4438 12.8429 25.4258C12.9722 26.8931 13.3758 28.2826 14.002 29.5431C13.2666 29.628 12.5112 29.6719 11.7422 29.6719ZM24.3984 33.8906C19.1644 33.8906 14.9062 29.6324 14.9062 24.3984C14.9062 19.1644 19.1644 14.9062 24.3984 14.9062C29.6324 14.9062 33.8906 19.1644 33.8906 24.3984C33.8906 29.6324 29.6324 33.8906 24.3984 33.8906Z" fill="white"/>
  </g>
  <defs>
    <clipPath id="clip0_158_656">
      <rect width="36" height="36" fill="white"/>
    </clipPath>
  </defs>
</svg>