<svg xmlns="http://www.w3.org/2000/svg" width="27" height="27" viewBox="0 0 27 27" fill="none">
  <g clip-path="url(#clip0_8_1168)">
    <path d="M18.031 3.08916C13.9122 -1.02972 7.20836 -1.02972 3.08947 3.08916C-1.02852 7.20894 -1.02852 13.9118 3.08947 18.0316C6.75745 21.6987 12.4701 22.0916 16.5863 19.2281C16.673 19.6379 16.8712 20.029 17.1899 20.3478L23.1883 26.3462C24.0625 27.2185 25.475 27.2185 26.3447 26.3462C27.2179 25.4729 27.2179 24.0604 26.3447 23.1898L20.3463 17.1896C20.0293 16.8736 19.6373 16.6744 19.2275 16.5878C22.0928 12.4707 21.6999 6.75893 18.031 3.08916ZM16.1372 16.1378C13.0621 19.2129 8.05749 19.2129 4.98328 16.1378C1.90997 13.0627 1.90997 8.05897 4.98328 4.98387C8.05749 1.90966 13.0621 1.90966 16.1372 4.98387C19.2123 8.05897 19.2123 13.0627 16.1372 16.1378Z" fill="#414141"/>
  </g>
  <defs>
    <clipPath id="clip0_8_1168">
      <rect width="27" height="27" fill="white"/>
    </clipPath>
  </defs>
</svg>