<svg xmlns="http://www.w3.org/2000/svg" width="31" height="32" viewBox="0 0 31 32" fill="none">
  <path d="M30.0872 18.5434L28.7566 17.4476C27.8452 16.6969 27.8468 15.3016 28.7567 14.5524L30.0872 13.4566C31.034 12.6766 31.2762 11.3393 30.663 10.2764L28.0357 5.72356C27.4224 4.66081 26.1434 4.20206 24.9952 4.63244L23.3813 5.23737C22.2759 5.65162 21.069 4.95294 20.8753 3.78981L20.592 2.08894C20.3903 0.878563 19.3538 0 18.1273 0H12.8728C11.6462 0 10.6096 0.878562 10.4081 2.089L10.1247 3.78981C9.93061 4.955 8.7221 5.65094 7.61873 5.23744L6.00487 4.63244C4.85652 4.20206 3.57767 4.66088 2.9643 5.72356L0.337077 10.2764C-0.276173 11.3391 -0.0340463 12.6765 0.912907 13.4565L2.24341 14.5524C3.15495 15.3031 3.15314 16.6982 2.24341 17.4475L0.912845 18.5434C-0.0340462 19.3234 -0.276235 20.6608 0.337014 21.7235L2.9643 26.2764C3.57761 27.3391 4.8562 27.7979 6.00487 27.3675L7.61867 26.7626C8.72429 26.3481 9.93092 27.0473 10.1246 28.2101L10.408 29.9109C10.6096 31.1214 11.6462 32 12.8727 32H18.1272C19.3537 32 20.3903 31.1214 20.5919 29.911L20.8752 28.2103C21.0692 27.0454 22.2777 26.3489 23.3812 26.7627L24.9952 27.3676C26.1438 27.798 27.4224 27.3392 28.0357 26.2764L30.6631 21.7235C31.2762 20.6608 31.034 19.3234 30.0872 18.5434ZM25.8718 25.0264L24.2579 24.4215C21.678 23.4546 18.8625 25.0859 18.4106 27.7992L18.1273 29.5H12.8728L12.5894 27.7992C12.1366 25.0806 9.31699 23.4564 6.74212 24.4215L5.12825 25.0264L2.50103 20.4736L3.83154 19.3777C5.95852 17.6258 5.95408 14.3706 3.83154 12.6223L2.50103 11.5264L5.12832 6.97356L6.74212 7.5785C9.32205 8.54537 12.1375 6.91412 12.5894 4.20081L12.8727 2.5H18.1272L18.4105 4.20081C18.8634 6.91969 21.6832 8.54338 24.2578 7.5785L25.8717 6.97356L28.4996 11.5258C28.4996 11.5258 28.4994 11.526 28.4989 11.5264L27.1684 12.6222C25.0415 14.374 25.0458 17.6293 27.1684 19.3776L28.4989 20.4735L25.8718 25.0264ZM15.5 9.83331C12.1014 9.83331 9.33648 12.5997 9.33648 16C9.33648 19.4003 12.1014 22.1667 15.5 22.1667C18.8986 22.1667 21.6636 19.4003 21.6636 16C21.6636 12.5997 18.8986 9.83331 15.5 9.83331ZM15.5 19.6667C13.4792 19.6667 11.8352 18.0218 11.8352 16C11.8352 13.9782 13.4792 12.3333 15.5 12.3333C17.5208 12.3333 19.1648 13.9782 19.1648 16C19.1648 18.0218 17.5208 19.6667 15.5 19.6667Z" fill="white"/>
</svg>