<svg xmlns="http://www.w3.org/2000/svg" width="36" height="42" viewBox="0 0 36 42" fill="none">
  <path d="M0.00018692 27.0709C0.00018692 25.0901 1.41157 23.4329 3.28151 23.0518V18.6215C3.28151 18.2179 3.47938 17.8401 3.81112 17.6101C4.14286 17.3802 4.56631 17.3275 4.94408 17.4694L7.2926 18.3501C8.83482 16.7467 10.7094 15.5391 12.7637 14.7978C10.745 13.302 9.43399 10.903 9.43399 8.20331C9.43399 3.67992 13.1139 0 17.6373 0C22.1607 0 25.8406 3.67992 25.8406 8.20331C25.8406 10.903 24.5296 13.302 22.5109 14.7978C24.5652 15.5392 26.4398 16.7468 27.982 18.3501L30.3305 17.4694C30.7084 17.3275 31.1318 17.3802 31.4635 17.6101C31.7952 17.8401 31.9931 18.2179 31.9931 18.6215V23.0518C33.863 23.4329 35.2744 25.0901 35.2744 27.0709C35.2744 29.0518 33.863 30.7089 31.9931 31.09V35.8485C31.9931 36.3614 31.6749 36.8206 31.1947 37.0006L18.0694 41.9226C17.7926 42.0258 17.4821 42.0258 17.2053 41.9226L4.08002 37.0006C3.5998 36.8206 3.28159 36.3614 3.28159 35.8485V31.09C1.41156 30.7089 0.00018692 29.0517 0.00018692 27.0709ZM23.3796 8.20331C23.3796 5.037 20.8036 2.46099 17.6373 2.46099C14.471 2.46099 11.895 5.037 11.895 8.20331C11.895 11.3696 14.471 13.9456 17.6373 13.9456C20.8036 13.9456 23.3796 11.3696 23.3796 8.20331ZM17.6373 16.4066C14.7544 16.4066 12.0009 17.4485 9.85244 19.31L17.6373 22.2293L25.4222 19.31C23.2736 17.4485 20.5201 16.4066 17.6373 16.4066ZM32.8134 27.0709C32.8134 26.1663 32.0774 25.4303 31.1728 25.4303H30.3524V28.7116H31.1728C32.0774 28.7116 32.8134 27.9756 32.8134 27.0709ZM29.5321 31.1313C28.5972 30.9408 27.8914 30.1121 27.8914 29.1217V25.0201C27.8914 24.0297 28.5972 23.2011 29.5321 23.0105V20.3971L18.8678 24.3962V38.9949L29.5321 34.9958V31.1313ZM16.4068 38.9948V24.3962L5.7425 20.3971V23.0105C6.67743 23.2011 7.38317 24.0297 7.38317 25.0201V29.1217C7.38317 30.1121 6.67743 30.9408 5.7425 31.1313V34.9957L16.4068 38.9948ZM4.10184 28.7116H4.92217V25.4303H4.10184C3.19718 25.4303 2.46118 26.1663 2.46118 27.0709C2.46118 27.9756 3.1971 28.7116 4.10184 28.7116Z" fill="white"/>
</svg>