<svg xmlns="http://www.w3.org/2000/svg" width="27" height="27" viewBox="0 0 27 27" fill="none">
  <g clip-path="url(#clip0_158_671)">
    <path d="M4.48898 17.2187C4.32096 17.2187 4.15982 17.1519 4.04102 17.0331C3.92221 16.9143 3.85547 16.7532 3.85547 16.5852V12.0661C3.85547 11.8981 3.92221 11.737 4.04102 11.6182C4.15982 11.4994 4.32096 11.4326 4.48898 11.4326C4.657 11.4326 4.81813 11.4994 4.93694 11.6182C5.05574 11.737 5.12249 11.8981 5.12249 12.0661V16.5852C5.12249 16.7532 5.05574 16.9143 4.93694 17.0331C4.81813 17.1519 4.657 17.2187 4.48898 17.2187Z" fill="white" stroke="white" stroke-width="0.5"/>
    <path d="M7.34337 7.12815C6.73735 7.12815 6.14495 6.94844 5.64106 6.61176C5.13718 6.27507 4.74445 5.79653 4.51254 5.23664C4.28062 4.67676 4.21995 4.06068 4.33817 3.4663C4.4564 2.87193 4.74823 2.32597 5.17674 1.89745C5.60526 1.46893 6.15123 1.1771 6.7456 1.05888C7.33997 0.940649 7.95605 1.00133 8.51594 1.23324C9.07583 1.46515 9.55437 1.85788 9.89106 2.36177C10.2277 2.86565 10.4074 3.45806 10.4074 4.06407C10.4065 4.87644 10.0834 5.65528 9.50901 6.22971C8.93458 6.80414 8.15574 7.12725 7.34337 7.12815ZM7.34337 2.26702C6.98795 2.26702 6.64051 2.37242 6.34498 2.56988C6.04946 2.76734 5.81912 3.048 5.68311 3.37637C5.54709 3.70474 5.51151 4.06607 5.58085 4.41466C5.65019 4.76326 5.82134 5.08346 6.07266 5.33478C6.32398 5.58611 6.64419 5.75726 6.99278 5.8266C7.34138 5.89594 7.70271 5.86035 8.03107 5.72434C8.35944 5.58832 8.6401 5.35799 8.83757 5.06246C9.03503 4.76694 9.14043 4.4195 9.14043 4.06407C9.13987 3.58764 8.95036 3.13087 8.61346 2.79398C8.27657 2.45709 7.81981 2.26758 7.34337 2.26702Z" fill="white" stroke="white" stroke-width="0.5"/>
    <path d="M17.3331 11.8682C17.2108 11.8682 17.0911 11.8329 16.9884 11.7664C16.8857 11.6999 16.8045 11.6051 16.7545 11.4935C16.7045 11.3818 16.6879 11.2581 16.7068 11.1372C16.7256 11.0163 16.779 10.9035 16.8605 10.8123L20.3026 6.95382C20.3581 6.89173 20.4252 6.84117 20.5002 6.80503C20.5752 6.76889 20.6566 6.74788 20.7397 6.74319C20.8229 6.73851 20.9061 6.75024 20.9847 6.77772C21.0633 6.8052 21.1357 6.84789 21.1978 6.90335C21.2598 6.95881 21.3104 7.02596 21.3465 7.10096C21.3827 7.17596 21.4037 7.25735 21.4084 7.34047C21.4131 7.42359 21.4013 7.50682 21.3739 7.58541C21.3464 7.664 21.3037 7.73641 21.2482 7.7985L17.8062 11.6549C17.7468 11.7218 17.674 11.7754 17.5925 11.8122C17.511 11.8489 17.4226 11.868 17.3331 11.8682Z" fill="white" stroke="white" stroke-width="0.5"/>
    <path d="M24.0994 17.5885H12.7329C12.5649 17.5885 12.4038 17.5218 12.285 17.403C12.1662 17.2842 12.0994 17.123 12.0994 16.955C12.0994 16.787 12.1662 16.6259 12.285 16.507C12.4038 16.3882 12.5649 16.3215 12.7329 16.3215H24.0994C24.2674 16.3215 24.4285 16.2548 24.5473 16.1359C24.6661 16.0171 24.7329 15.856 24.7329 15.688V2.91518C24.7329 2.74716 24.6661 2.58602 24.5473 2.46722C24.4285 2.34841 24.2674 2.28167 24.0994 2.28167H11.6716C11.5036 2.28167 11.3424 2.21492 11.2236 2.09612C11.1048 1.97731 11.0381 1.81617 11.0381 1.64816C11.0381 1.48014 11.1048 1.31901 11.2236 1.2002C11.3424 1.08139 11.5036 1.01465 11.6716 1.01465H24.0994C24.6034 1.01465 25.0868 1.21488 25.4432 1.5713C25.7997 1.92772 25.9999 2.41112 25.9999 2.91518V15.688C25.9999 16.192 25.7997 16.6754 25.4432 17.0319C25.0868 17.3883 24.6034 17.5885 24.0994 17.5885Z" fill="white" stroke="white" stroke-width="0.5"/>
    <path d="M7.34357 26H4.48898C4.32096 26 4.15982 25.9333 4.04102 25.8145C3.92221 25.6957 3.85547 25.5345 3.85547 25.3665V16.5857C3.85547 16.4176 3.92221 16.2565 4.04102 16.1377C4.15982 16.0189 4.32096 15.9521 4.48898 15.9521C4.657 15.9521 4.81813 16.0189 4.93694 16.1377C5.05574 16.2565 5.12249 16.4176 5.12249 16.5857V24.733H7.34357C7.51159 24.733 7.67272 24.7998 7.79153 24.9186C7.91034 25.0374 7.97708 25.1985 7.97708 25.3665C7.97708 25.5345 7.91034 25.6957 7.79153 25.8145C7.67272 25.9333 7.51159 26 7.34357 26Z" fill="white" stroke="white" stroke-width="0.5"/>
    <path d="M10.1981 26.0002H7.34312C7.1751 26.0002 7.01396 25.9334 6.89516 25.8146C6.77635 25.6958 6.70961 25.5347 6.70961 25.3667V16.9554C6.70961 16.7874 6.77635 16.6262 6.89516 16.5074C7.01396 16.3886 7.1751 16.3219 7.34312 16.3219C7.51113 16.3219 7.67227 16.3886 7.79108 16.5074C7.90988 16.6262 7.97663 16.7874 7.97663 16.9554V24.7332H9.56462V12.7556C9.56458 12.4927 9.64253 12.2357 9.7886 12.017C9.93466 11.7984 10.1423 11.628 10.3852 11.5274C10.6281 11.4269 10.8954 11.4006 11.1533 11.4519C11.4112 11.5033 11.648 11.6299 11.8339 11.8159L12.8268 12.8076C12.9003 12.8815 12.9878 12.9401 13.0842 12.9799C13.1805 13.0198 13.2838 13.0402 13.3881 13.0399H16.3364C16.4421 13.0399 16.5467 13.0188 16.6441 12.9779C16.7415 12.937 16.8298 12.877 16.9038 12.8015C16.9777 12.726 17.0358 12.6365 17.0748 12.5383C17.1137 12.4401 17.1326 12.335 17.1304 12.2294C17.1215 11.8007 16.7528 11.4523 16.3085 11.4523H13.9776C13.8097 11.4521 13.6487 11.3853 13.53 11.2665L12.1662 9.90314C11.9188 9.65429 11.6245 9.45702 11.3003 9.32275C10.9761 9.18848 10.6284 9.1199 10.2775 9.12097H9.78593L8.82848 9.91708C8.41138 10.2637 7.88611 10.4535 7.34375 10.4535C6.80139 10.4535 6.27612 10.2637 5.85902 9.91708L4.90073 9.12097H4.48852C3.89955 9.12164 3.33489 9.35591 2.91842 9.77238C2.50196 10.1888 2.26769 10.7535 2.26702 11.3425C2.26702 11.5105 2.20027 11.6716 2.08147 11.7904C1.96266 11.9092 1.80153 11.976 1.63351 11.976C1.46549 11.976 1.30436 11.9092 1.18555 11.7904C1.06674 11.6716 1 11.5105 1 11.3425C1.00101 10.4176 1.36887 9.53084 2.02288 8.87683C2.67688 8.22282 3.56362 7.85496 4.48852 7.85395H5.12964C5.27762 7.854 5.42091 7.90585 5.53466 8.0005L6.66822 8.94274C6.85794 9.10077 7.09705 9.18731 7.34396 9.18731C7.59088 9.18731 7.82998 9.10077 8.0197 8.94274L9.15242 8.00008C9.26617 7.90543 9.40946 7.85358 9.55744 7.85353H10.2784C10.7957 7.8521 11.3082 7.95331 11.7862 8.15129C12.2641 8.34928 12.6981 8.64011 13.0629 9.00694L14.2412 10.1853H16.3106C17.44 10.1853 18.3767 11.0908 18.3991 12.204C18.4047 12.4782 18.3555 12.7506 18.2544 13.0055C18.1534 13.2604 18.0025 13.4925 17.8106 13.6884C17.6187 13.8842 17.3897 14.0398 17.1369 14.146C16.8841 14.2522 16.6127 14.3069 16.3385 14.3069H13.3864C13.1157 14.3076 12.8475 14.2547 12.5974 14.1511C12.3473 14.0475 12.1202 13.8953 11.9293 13.7034L10.9381 12.7109C10.93 12.7028 10.9198 12.6971 10.9088 12.6944C10.8977 12.6916 10.8861 12.6919 10.8751 12.6952C10.8628 12.6994 10.8521 12.7074 10.8445 12.718C10.8369 12.7286 10.8328 12.7413 10.8329 12.7544V25.3654C10.8331 25.4488 10.8168 25.5314 10.7849 25.6085C10.7531 25.6856 10.7063 25.7557 10.6474 25.8146C10.5884 25.8736 10.5183 25.9204 10.4412 25.9522C10.3642 25.9841 10.2815 26.0004 10.1981 26.0002Z" fill="white" stroke="white" stroke-width="0.5"/>
    <path d="M3.06102 18.6473C2.51457 18.6467 1.99067 18.4294 1.60428 18.043C1.21788 17.6566 1.00056 17.1327 1 16.5863V11.3425C1 11.1745 1.06674 11.0133 1.18555 10.8945C1.30436 10.7757 1.46549 10.709 1.63351 10.709C1.80153 10.709 1.96266 10.7757 2.08147 10.8945C2.20027 11.0133 2.26702 11.1745 2.26702 11.3425V16.5863C2.26702 16.7968 2.35067 16.9988 2.49958 17.1477C2.64848 17.2966 2.85044 17.3803 3.06102 17.3803C3.2716 17.3803 3.47355 17.2966 3.62246 17.1477C3.77136 16.9988 3.85502 16.7968 3.85502 16.5863C3.85502 16.4182 3.92176 16.2571 4.04057 16.1383C4.15937 16.0195 4.32051 15.9528 4.48852 15.9528C4.65654 15.9528 4.81768 16.0195 4.93648 16.1383C5.05529 16.2571 5.12203 16.4182 5.12203 16.5863C5.12147 17.1327 4.90415 17.6566 4.51776 18.043C4.13136 18.4294 3.60746 18.6467 3.06102 18.6473Z" fill="white" stroke="white" stroke-width="0.5"/>
    <path d="M20.9354 26.0004H1.63449C1.46647 26.0004 1.30533 25.9337 1.18653 25.8149C1.06772 25.6961 1.00098 25.5349 1.00098 25.3669C1.00098 25.1989 1.06772 25.0378 1.18653 24.919C1.30533 24.8001 1.46647 24.7334 1.63449 24.7334H20.9354C21.1034 24.7334 21.2646 24.8001 21.3834 24.919C21.5022 25.0378 21.5689 25.1989 21.5689 25.3669C21.5689 25.5349 21.5022 25.6961 21.3834 25.8149C21.2646 25.9337 21.1034 26.0004 20.9354 26.0004Z" fill="white" stroke="white" stroke-width="0.5"/>
    <path d="M17.4903 8.00921H14.2058C14.0378 8.00921 13.8766 7.94246 13.7578 7.82366C13.639 7.70485 13.5723 7.54371 13.5723 7.3757C13.5723 7.20768 13.639 7.04654 13.7578 6.92774C13.8766 6.80893 14.0378 6.74219 14.2058 6.74219H17.4903C17.6583 6.74219 17.8195 6.80893 17.9383 6.92774C18.0571 7.04654 18.1238 7.20768 18.1238 7.3757C18.1238 7.54371 18.0571 7.70485 17.9383 7.82366C17.8195 7.94246 17.6583 8.00921 17.4903 8.00921Z" fill="white" stroke="white" stroke-width="0.5"/>
    <path d="M20.7748 5.14495H14.2058C14.0378 5.14495 13.8766 5.0782 13.7578 4.9594C13.639 4.84059 13.5723 4.67946 13.5723 4.51144C13.5723 4.34342 13.639 4.18229 13.7578 4.06348C13.8766 3.94467 14.0378 3.87793 14.2058 3.87793H20.7748C20.9429 3.87793 21.104 3.94467 21.2228 4.06348C21.3416 4.18229 21.4084 4.34342 21.4084 4.51144C21.4084 4.67946 21.3416 4.84059 21.2228 4.9594C21.104 5.0782 20.9429 5.14495 20.7748 5.14495Z" fill="white" stroke="white" stroke-width="0.5"/>
  </g>
  <defs>
    <clipPath id="clip0_158_671">
      <rect width="27" height="27" fill="white"/>
    </clipPath>
  </defs>
</svg>