<svg xmlns="http://www.w3.org/2000/svg" width="70" height="71" viewBox="0 0 70 71" fill="none">
  <rect x="1" y="1" width="68" height="68" rx="34" fill="#F7F7FA" stroke="black" stroke-opacity="0.1" stroke-linecap="round" stroke-linejoin="round"/>
  <path d="M40.3105 33.3741C42.3522 31.9275 43.6818 29.5863 43.6818 26.9487C43.6818 22.5658 40.0115 19 35.5 19C30.9885 19 27.3182 22.5658 27.3182 26.9487C27.3182 29.5863 28.6477 31.9275 30.6895 33.3741C25.614 35.2611 22 40.0419 22 45.6282C22 48.0388 24.0187 50 26.5 50H44.5C46.9813 50 49 48.0388 49 45.6282C49 40.0419 45.386 35.2611 40.3105 33.3741ZM29.7727 26.9487C29.7727 23.8807 32.342 21.3846 35.5 21.3846C38.658 21.3846 41.2273 23.8807 41.2273 26.9487C41.2273 30.0167 38.658 32.5129 35.5 32.5129C32.342 32.5129 29.7727 30.0167 29.7727 26.9487ZM44.5 47.6154H26.5C25.3721 47.6154 24.4546 46.7239 24.4546 45.6282C24.4546 39.7111 29.4095 34.8974 35.5001 34.8974C41.5907 34.8974 46.5456 39.7111 46.5456 45.6282C46.5455 46.7239 45.6279 47.6154 44.5 47.6154Z" fill="#414141"/>
</svg>